<mxfile host="app.diagrams.net" modified="2024-06-10T23:44:17.495Z" agent="Mozilla/5.0 (Windows NT 10.0; Win64; x64) AppleWebKit/537.36 (KHTML, like Gecko) Chrome/125.0.0.0 Safari/537.36" etag="XdQGg9jW55M6yD3BYNAZ" version="24.4.2" type="device">
  <diagram id="STcZ12dg7cT1rM8q-_fs" name="Page-1">
    <mxGraphModel dx="3692" dy="720" grid="1" gridSize="10" guides="1" tooltips="1" connect="1" arrows="1" fold="1" page="1" pageScale="1" pageWidth="1169" pageHeight="827" math="0" shadow="0">
      <root>
        <mxCell id="0" />
        <mxCell id="1" parent="0" />
        <mxCell id="EWTi3nRZQ3Ram_rcYh2X-4" value="AWS Cloud" style="points=[[0,0],[0.25,0],[0.5,0],[0.75,0],[1,0],[1,0.25],[1,0.5],[1,0.75],[1,1],[0.75,1],[0.5,1],[0.25,1],[0,1],[0,0.75],[0,0.5],[0,0.25]];outlineConnect=0;gradientColor=none;html=1;whiteSpace=wrap;fontSize=12;fontStyle=0;shape=mxgraph.aws4.group;grIcon=mxgraph.aws4.group_aws_cloud_alt;strokeColor=#232F3E;fillColor=none;verticalAlign=top;align=left;spacingLeft=30;fontColor=#232F3E;dashed=1;strokeWidth=3;" parent="1" vertex="1">
          <mxGeometry x="-2117" y="80" width="768" height="712" as="geometry" />
        </mxCell>
        <mxCell id="EWTi3nRZQ3Ram_rcYh2X-5" value="" style="rounded=0;whiteSpace=wrap;html=1;fillColor=none;strokeColor=#232F3E;dashed=1;strokeWidth=3;" parent="1" vertex="1">
          <mxGeometry x="-2300" y="80" width="130" height="712" as="geometry" />
        </mxCell>
        <mxCell id="EWTi3nRZQ3Ram_rcYh2X-9" value="&lt;font color=&quot;#248814&quot;&gt;&lt;b&gt;Guide VPC&lt;/b&gt;&lt;/font&gt;" style="points=[[0,0],[0.25,0],[0.5,0],[0.75,0],[1,0],[1,0.25],[1,0.5],[1,0.75],[1,1],[0.75,1],[0.5,1],[0.25,1],[0,1],[0,0.75],[0,0.5],[0,0.25]];outlineConnect=0;gradientColor=none;html=1;whiteSpace=wrap;fontSize=12;fontStyle=0;shape=mxgraph.aws4.group;grIcon=mxgraph.aws4.group_vpc;strokeColor=#248814;fillColor=none;verticalAlign=top;align=left;spacingLeft=30;fontColor=#AAB7B8;dashed=0;" parent="1" vertex="1">
          <mxGeometry x="-2097" y="137" width="608" height="630.5" as="geometry" />
        </mxCell>
        <mxCell id="EWTi3nRZQ3Ram_rcYh2X-15" value="Clients" style="text;html=1;strokeColor=none;fillColor=none;align=center;verticalAlign=middle;whiteSpace=wrap;rounded=0;dashed=1;" parent="1" vertex="1">
          <mxGeometry x="-2250" y="110" width="40" height="20" as="geometry" />
        </mxCell>
        <mxCell id="EWTi3nRZQ3Ram_rcYh2X-19" value="" style="shape=image;verticalLabelPosition=bottom;verticalAlign=top;imageAspect=0;aspect=fixed;image=data:image/png,iVBORw0KGgoAAAANSUhEUgAAASwAAAEsCAYAAAB5fY51AAAgAElEQVR4Xu1dCZRUxdX+qnv2YZhhFoZtZFMUUXCLKCJL3OK+oMZoSFTEaPL/Mb/GqIkR3GLclyRqGMBdkyBq4r4kgIrRxAU3XJDFYWcWBhhmn67/1Ot+Pa9fv/eq6r3X23T1OTknMtW13Kr6+t773XuLQH2ySgJVs5ceTymuIQRHgtLdFOQDAC80dAy4H49N2J1VwlCLzTgJkIybsZqwawkMuHjZ/kFKPyRAjrkTCqxECFc3LJj2vOsB1BeVBBIsAQVYCRZwOnVfOXvp5wTY12lOlOJNhOgVDQunv59Oc1dzURJgElCAlSXnoPKiJdMIIUv05ZL27aA5+UBOkaUEKPC3rp7gNTsWHrkmS0SklpkBElCAlQGb5McUq2YvuxCgC/S+ij+5F3nbP0d3/1HorD4MHUOm2Q1zf3tH4XW7Hp3Y6Mc8VB9KAl4koADLi/Qy6LtVs5f+DsA1+pT7v3MFgl27oivoKahA28gz0Fl1CAiJPRYU2EmA39d30bvx8PT2DFq2mmofk4ACrD62oXbLqZy99FECzNT/PmDZxZZNe/rVYPfos9FTtnfc3ymwGcCchtpptVkiNrXMNJOAAqw025BETafyoqVPEoIf6P2XLfsJCKjtcF0V49E68nSEiodatfkUwFX1tdNeTtR8Vb9KAlYSUICVJedCFrA0sZAAOqonoW3EKaD5ZRYaF13W3ZNzWfPCIz/OEjGqZaZYAgqwUrwByRreFWBFJkcDeegYdgzaao4DcgpipkyppqY9FeohVzc9NHV9stajxslOCSjAypJ99wJYuohCOf3QPuJkdAyZApCgGbg6QfDHrpzgTTseOHJ7lohVLTPJElCAlWSBp2o4PwBLn3tP4UC0jTgdXQMPjjcTKZopxS2NO6vuwaJxnalarxq3b0pAAVbf3Ne4VYkCVii3EIGuNiGpdPcbjta9foCe/qMs/Fuoo5T8tnH+lMcAYu/dFxpJNVISCEtAAVaWnARRwGofPBabz74Lla/fhZKVrwtJp7PiALSNOgOhokEW7enHPSTwq6Z5U18T6kw1UhJwkIACrCw5HjKAVffTZwFKUVD3IapeuxOFdR/ypUSC6Bg8Ge3DT0Yor7+FxkWXhZD7s6bayZ/zO1MtlASsJaAAK0tOhjRgMbnQsCVX/MU/UfXaHchrXMeVViiQj46aY7X/0WB+THuNUSR4PNRNfqMYRa4oVQMLCSjAypJjIQ1YEbDSQQs9XSj9cDEqlvwRObubuFIL5Zagbfgp6BxypBbPFYtcaKfAH0JtBTc1PXHYTm5nqoGSQEQCCrCy5ChIAdalz0SkEvGVR8ELIB27Ub58IcrefQzBTn69v57CarSNmoGuygPizUSKJhDc3NBc9UfFKGbJQfS4TAVYHgWYKV8XBqxBY1H302ei5iD09B0NtEj034MtDSh/888o+2ARSKibK4bukpFo3fP7lowigHU0RH7TsGDKU4pR5IoyqxsowMqS7RcGrMFjUXfp4rBU9GAEo3nITozhv3Mb1qHyX/eg5Mt/CUmys+pgtI44DbSo2qr9CoTIZfULpr4p1JlqlHUSUICVJVsuDFiD9jFoWL0aVRSkYjSuXvAqqPsIVf+6B4XrV3AlShHQouXbh58EasEoAng5RMkVjfOnfsHtTDXIKgkowMqS7RYHLKOGRcORemYHvNE8NP29+OulqHrjbuQ1fcuVrMYo7vE9tA87GjAzikCIUDxCQznXNiycvInbmWqQFRJQgJUV2wyIA9Y+qGNOdwczMGwuRnxaVhpXqBulHz2LijcfQE4rP60wlFeqVYRglSFIIDZHEQALu7+H9uTc0rBwcm/FwSzZN7XMWAkowMqSEyEHWLoPy8gSGsxDG7NQAzFN4woLlbS3oPy9R1H2nyeFGcXWUWeiu3KC1a40AOSmelJ8P+Yd0pUl26aWaZKAAqwsORLSgCVhBvZqXBHNywBaDMSCu5tQ/nYtylYsBgn1cCXe3X90mFEsGRHflmINQH5dP3/qX7kdqQZ9TgIKsPrcllovSAqwLnk6JoShV3Myx2WZcpotQU6zH7VJaYzisj+h5Ovo4z2O0mf15dtGnoZQ4cC4dpTi/RAhlzXVTn0nS7ZQLVMlP2fPGZAGLHNIg6AZaOmgNznmCzZ8gqqlf0DhRn6hUkqC6BwyDW3DTwTN7RcPXMALQPCKhtojv86e3czelSoNK0v2XgqwfvK0AzsYUZhs2cNejaoXvCJC1jWwCPgVr1qGqiV/QN72Ou4u0GAB2vc4Hu1DjwKCeTHtKaU9AHmoDQXX7p5/2FZuZ6pBxkpAAVbGbp3cxKUBK+pA92YGRtlEO9aR5Sh+8g9UvF2LnDYRRrEMbSNORcegw0HMOYpAawjkLtITvE0xinLnI1NaK8DKlJ3yOE85wFoUHs2QQxj5B9O/G8AsqnFZBJs6gl/YQ086d6P8P4+j7IO/ItjZyl1tT9FgtI0+C13l+8W3pagPgVzf+E3oz1g6nZ83xB1NNUgXCSjASpedSPA8pAErzoEe8XhyHOuWGlUY/ezBzhALEdzdiPJ/P4SyT54TYhS7SvdC257ngL2naP5QYFUIgWuaaqdE4jQSLGTVfcIloAAr4SJOjwGkAOviiIblCDI6CLnQqHjmJqXI3f4tKt/6M0q+WSYgQILOgYeGGcWCinjgonif0sDPGhdM+Y9AZ6pJGktAAVYab46fU5MDrL/1Jj5z2cHYKg6eIuSNZmhkXI1RfPsBFG5ib7c6fyjJQceQaWjXGMViK43rOSB4lWIUeZJM378rwErfvfF1ZtKAZQSPGIe5jUZla/bJR8hbhUYUr3kbVW/dj7zt/KcPabAQ7cNPQPuQ7wLB3Bg5UqAblMxv7yHXtTw0pd5XIavOEi4BBVgJF3F6DCANWI6+KhnQiqxfwAw0pvXEgRbTuFiO4qcvoOLdhchpa+YKNpRXhraRp6OjeqIVo9hCKb2zoaP8djw2gV+JkDuaapAMCSjASoaU02AMKcCaHcl60UDGAZwsQcjU3jFeywBmVhpdnDkabq9VPf3wKZSteFqIUewuGqIxit3l4+J3gtKtlGBuQ/O0Wiwi/LyhNNjLbJ6CAqws2X1hwKreB3UX/9VUrcGlRmVrJlrnHIabW4VKGKpDGP4ebNuO8vceQdnnzwsziq17nYtQ8VAr/9aXNESvaVww/bksORIZuUwFWBm5bfKTlgYsOx9WDAhZaEhOGlW0Io1dMKpNdQhThLzZXMxtqkPlv+ejZM1bAoIhmonIgk+pFaMI+h5ozs8a5h/5gUBnqkmSJaAAK8kCT9Vw4oC1N+ouZiyhQ9xUDChJgpYuADfxXI5gSFGw5XNUvTMPhZs/44pZYxSHHYW2muOB3CKL9nRxJ8m7ase8I1ZzO1MNkiYBBVhJE3VqBxIHrH1QN/sv4cnGmWcW4ORo9kXRKb4/vX+PEfJx82TvKK5Zjqp/z0Ne8wau0EM5RVoYBAuHQCCOUewilM5r7yyas+vRiY3czlSDhEtAAVbCRZweA4gD1t6oY053swYUdYBLalQJMgMdK56yKfZ0o/SLl1Hx34eR07aDuwmh/HK0jjxdC0AljGgwfCjFLkLobfXN+Xdi0SRWAVV9UiQBBVgpEnyyh5UCrIv+ElM5VKRkjFHRck7D0VSr+HpbRo3OMlg14vjnmIXm0AjS2YryFX9D2SfPItjFz1HsLh6mpfp0l42J2yJKsQmUzmnYOe0hxSgm+wSHx1OAlRq5J31UacAylTu217jcllGWjZDXReaUk6iDYfwTZcHW7Sj/4AmUffGiGKNYvp/2AGyPNaO4EqBXNdROfyHpG5nlAyrAypIDIA1YRo3HkqWTiLfixXPZxFvxnhYz15AX0QRzmzeg8r2FKFknUKiUBNBZfThah58CWjAg/qRQupwi5zLFKCbvEinASp6sUzqSNGBZsXhx5phg2k3UXnQZzyVpBoaHi5ZMDcs9Zj0EBZs/Q9V/FqJw60ruvtBArlY4sH2P7wE5sYwipQxt6d+6c3B184PT13E7Uw08SUABlifxZc6XpQBr1lORhbmLiwprPjIR8vpwTkGjRhCyaG8LUs6aYPG376LqvQXI27GRu5mhnH5oG36CVrIZgZyY9pSikxL6QGdH0Y2KUeSK0nUDBViuRZdZX5QGrD5kBmquWqcI+lAPSr98BRUfPoGcdj6j2FNQgbaRZ4A9khHHKILuICC31nfRu/Hw9PbMOiXpP1sFWOm/R77MUA6wnrRn8WzNs3Dl0Hjzy8o8k9SokhQaoeUofvoMyj7/O4Jd/OiF7n7Dw8+Rle4Zt0eUYgMBrqsfNvURzCUhXzZRdaJYwmw5A9KApWkkFmadY32szDAD40DVZL4G25pR/tFfUPbVKyDsfQvOp6tiPFpHnoFQ8RCrlqyQ11X1tdNe5vWj/s6XgNKw+DLqEy2kAOtCpmEZE5StNCd3cVExYGELfrrIRdKDXFQ8FdQENUbxg8dQ8u2/+WeABNBRPQltI04BzS+L17hAl3X35FzWvPBI/ttm/NGytoUCrCzZemnAcqyaYIhzErz8ejPhiqS8+lkx48pogjJgGF5nwdYvUPXBIyjc9gX3tNBAHjpqjkHbsOOAnIKY9mFGEU+FesjVTQ9N5Vci5I6WfQ0UYGXJnssB1hO9GpamaUWExKma4CYuKsbsFAK/1IVGFNe9h6r3H0Hezk3cU8MYxfYRJ6NjyBSABE3taQcF+VNXTvCmHQ8cyX/bjDta9jRQgJUley0MWAP3Rt2sJyyqNRhAKwFxUeJBosmNkI+bF8tRXPUGKlY8hZyOndzT01M4UKt62lV1cLyZSMHKpv6uYUfVvVg0rpPbmWqgnO7ZcgaEAat6b9RdYNKwuJqPSQOzTZy2ABsu+LnUqMLOMpOmaI7zcpi3U5AspSDdbSj/7DmUffmCOKO41w/Q03+UhX8LdRS4trF26uMA0fXZbDmaUutUGpaUuDK3sTBgDRyDuguZhqXMwDDmOedKaoziJ4tQtup1IUaxs+IAtI06A6GiQfGHieIzUPKz+gVT38zck5bYmSvASqx806Z3ccBiGhb7oTdfVtNL0E5/d+0Qz5wIeTOY5e7chMoVT6BkvcDThySIjsGT0T78ZITy+ludkde6Q/SK7Qum8ysRps0JS85EFGAlR84pH0UcsMZETEJeEGgmmoEycWKS5mtEHAXbvkDViidQWP8Vd89DgXx01Byr/Y8G82PaszeCCMXjPT3kWsUo9opGARb3WPWNBnKA9bjJ96PLgOcTknWIR0PY7X1NYVUm8ncLkPSiCcaETsiERvDnXbzxfVR99Djydm3mHqBQbgnahp+CziFHAiQQ256inRLcF2otuLnpicP4Xn7uaJndQAFWZu+f8OylAcvKd5MQM1AGDC1CLBzjtWTShSQ1KpF0IZajuPpfqPh0kSCjWK3V4OqqPCBuXylFEwhubmiu+mM2M4oKsISvfGY3lAKs8yMaFpcdlNWoDBoSlx20AacYjSszigdqVU+/fAFlX7+MYLdAjmLJSLQyRrFkhNWhW0dD5DcNC6Y8lY2MogKszMYh4dlLA5ZwkKhL0BICQxcaFS9C3rUZ6F0TDHbsQPnnz6Bs9b/EGMWqg9E64jTQomqrfV6BELks2xhFBVjCVz6zG8oB1mP2PiWnOldJrByaSRHy5tCI3J0bUfnpX1Gy8X3uoaIIoGPIVO1lH2rNKL4couSKxvlT+XlD3NHSv4ECrPTfI19mKA1Yju8GyiQcZ6cZyKt4yv5e0Pg1qj75Cwobv+buMQ0WoK3mOHQMOxqwZhQfoaGcaxsWTubnDXFHS98GCrDSd298nZkUYP340V4Ny0vlUK7ZZwAz9n+zIELeKr6teOMHqPr0L8hr2cLd81BeqfZqdUf14SABc44imIPsHtqTc0vDwsm7uJ1lYAMFWBm4aW6mLA1YUfCIvK0k9FKzbKK0h7goX8HQNG8uISCTLmTy8dnNm+UofrsMFSufQU4HH2t6CqvROvosdFeMtzoODaC4sT7Q7wHMO6TLzXlJ1+8owErXnfF5XtKAZaXxxDniLTQkL3FRXiLkjQ8Sch/QkJx31N9uE4fmNG9J8CNdbSj/+iWUrX4NwW5+heXu/qPDVU8tGUW6Ggj8ur526t98Pk4p604BVspEn9yBpQHLTqOKY+FkLn+K46JiQNg0b98qqUrGc9mAYbB9B8q//AfK1i0VZBS/g7aRpyFUWBV3sCjF+yFCLmuqnSrwtllyz6XsaAqwZCWWoe2lAOtHj/T6sLT/5xBpHvP3zIiL6q3b5bWSqmwZ6Sg6xcrXtlgikLtrMypXPo2SzR9yTx4lQXQOnY62PU4Aze1nBVzPgwR/2VB7JN/Lzx0tNQ0UYKVG7kkfVRqwbB3gkhoVLy7KtRkof/nD2GouMWMDWlwfmQ0489bLi5C30WA1RnHl0yhs+oZ7dhij2L7H8dpbigjmxbSnlPaAkIVttOC3u+cftpXbWZo1UICVZhuSqOlIAdbMhyPVGizASb/0TvWihC67Co2ID32wkbdBnsVbVqDq80XI283HmlBeWZhRHHQ4iDlHEWilFHc2dAy4FY9N2J2oc+d3vwqw/JZomvYnDlh7oW4mMwmVGWivkckkSidAE2Q5inVvoeKrfyCnU4BRLBqMttFnoat8P6vTuS1EyQ2N34T+jKXTu9P0+EanpQAr3XfIp/mJA9YY1DENi2s+cR4njfu+TCiASdNIVOVQL5pgWEAmORnmzWUHvedKaozi6ldRtvafQoxiV+leaNvzHPT0q4k7VRRYFULgmqbaKYt9OnIJ6UYBVkLEmn6digNWRMPihgYIxhdFQyFkzMs0iIuK+pJcztt3MDTI2wSGwY6dKF/1Isrq3gShvDdbCToHHhpmFAsq4oGL4n1KAz9rXDBFoBJh8s+5AqzkyzwlI0oB1g8jGpZrh3jmVg5FOuZK8hz52j6RMKP41XMo2bqCe8YoyUHH0Olo1xjFYiuN6zkgeFW6MYoKsLhb2zcaCANWFdOwHu5l01wHRaoI+XizWsYsltBgDeFtWo7i9tWo+vJZFDav5h5eGizUwiA6hn4XCObGtKdANyiZ395Drmt5aEo9t7MkNFCAlQQhp8MQwoA1cC/U/fAh62fqbX/p9RXyyiq7qRwq8MK0a01QYN4x5peFeWjrq0phkGxkn4q3fqwBV17rNu4RDOWXa2Zix8BDrRjFFkrJHQ0dZXekmlFUgMXdyr7RQBiwNA3roYiGJcmGCTmaXYKWkE9Ij7OSIQQSqAlKpQv5EyFv+Y7ixndQ8c2LyOls4R7mnqIhaN3rXHSXjYlvS7GFBsjchu1T5mMR6eF2loAGCrASINR07FIKsDQNK3L5LUHIoGk4gZQKjeiVY5w8JX8MwhsS35/lPsVrgqSnHeVr30DZt0sR7OHnKHaVj0PbyDPsGMUvKQ1c3Th/yt+TfdYVYCVb4ikaTxqwuBHhAuZUzCWTNKeEHM02GpXj5RaYdwabgb2R/CZ5R8BOYxTXvIKyDcuFGMWO6sPQNuIUUCtGEfQ90JyfNcw/8oNkHWsFWMmSdIrHkQOshaZfcuvDH1e/ylUogEHTEDL7VIS8mwj5qMbMzFRKkdu6FZWrnkdJ/Sfck6kxisOOQlvN8UBukZWp+HRnIPfqHfOO4Hv5uaM5N1CA5VGAmfJ1acCKi8OSMQOTw4b1XkIB89V3MLSPi7Kel4WG6ZsmKAPisU+UaYziN8+jcMda7lEO5RRppZo7hkwHAjkx7SnQRUD+3N5RMHfXoxMbuZ25bKAAy6XgMu1rUoB1nknDcrzsKWTDPNWQV8UDjRpyccNnqPrmH8hr5UcvMEaxdeTpWgAqYXFrhg+l2EUIva2+Of9OLJrEfyJI8iIpwJIUWKY2lwOsBVH/rnNtcl2zSdHl90IIaOZrH9MEbTU2gdAQJg/ag9JN76Fi7SvI6eIzit3Fw7RUHytGkVJsAqVzGmqmLcRcwgu/F75WCrCERZXZDaUA69wFkWoNLutFeYmLUqERptr2HA3WqWoGl7iwNlO1HMX1S1G24U0Eezq4B58lVbMHYHuKh8a1paCfA7i6oXb6C9yOBBoowBIQUl9oIg1YygyMD551DOGw8VHZvu8o6BNMoSYY7NqF8nWvo2zzu3xGkQTQWX04WhmjmD8g/spQurwrlPOz5oVHfuzlPinA8iK9DPquHGDND69Mu2yC5kT0Mss4gHUBqgj5GHkLEQQJCJK1KR6Yu3srKte+jJLGz7gnngZytafI2mq+B+QUmv1bzO78W3cOrm5+cPo6bmcWDRRguZFaBn5HHLD2RB0zCWNYQgHQUmagAeQ1tI/978h/CvkE0yFC3vhqUuTHq2DnOlStfQmFO/lYE8rph7bhJ6Jz6DSAxD5HRik6KaEPdHYU3SjLKCrAykDwcTNlccDaC3U/iGhYQr/0LjQqrm9FFQ/s1bjMIRvJjZC3fEex4XNUrXsJeW0N3KPYU1Ch+bc6Kw+OZxRBd1CK3zd24x48PJ0ffh/JouIOqhpkvgQqL1r6BCE4V1/JgGUXWy6qvWpP1P0gomEJOcAdfDdOLJ7vYChovrpKFzLU5xJKj5EB8di4KMtg3DB6RTQ2C3k77hMnVzLmx0MCDEPdKN36PirqXkdOF7/Ccne/4WgdfSZ6yvaOO3cU2ExBf91YO12va2R74ZSGlflYJLQCOcAy+rCMDzckMFFY6oVpidIrRukIFSVUxQOtcxat3QKkpwPlG5ahbPM7QoxiZ8UELUcxVDw4/twyx3wOfujk31KAJXTdM7+RNGDZvUuoi8Lvyx8pQsfXMNw+JZZhmiAvzclW04tukMmHZvVakH+aYLBzF8o3LEHZ1v/wGUUAHYMmo23kqaB5pTGXiwWeUoKfNdZOe8zq1inAynwsElpB5ewljxOQ84RMwnNqe80PIbPQxlxRoRFZFxqR21aPym9fQ8n2ldxzSQN56Kg5JswoBvNj2odCuKpxwbTbzJ0owOKKtW80ENawKpkPq9bAEvZBMzDGJ2QBtlyQVhHy8e87xmqwGqNY9xoKW+q4F4g9R9a694/BStoYPz2UntU0f/rTxn9TgMUVZ99oYGYJbZ3uOmCxZduahW4cwCo0Il6eCfwxSJPQiOLtX6Kq7lXktfPzoduHHaM9R2b8hEKBicYHMRRg9Q084q5COKwhTsOyCOp0qhelzMAMNQNNPj4uiyvhE6QhlG77ABUblyCn25lR3D3qLHTWHGM4z/Tj+trpB+j/oACLe9X7RgMpDeucebEOW1ehAAIaFY9SVzXk4x3ntuZqCqtm2ETIm4NkSXc7yre8g7It/0Yw1Gl7sXYc9BuESob3/j1EDqpfMPUj9g8KsPoGHnFXIaVhMcAym4NOLJ7TJUpIkGgk9IDra3KoSOo4L5nLb6FpeImLcp0xIBDP5aQZc/fJQaOK8wk619QPdu1G+aZlKKv/AATxhRw6Kg9C67hLes80pX+qnz/9fxRgca9532kgClht1ftg/Zl/ci69Ynm4ZSqHSpgTmi/N0N4xAdniIQejL87SzBGctwHD7Cut2qTjcM0rh3l7+TFI89CIfk2fY8iaGJ96BPoIdky8BbSgPKJh4rP6+dP2V4DVd/CIuxJxwNoX68/8Q68Kw3W8W8RFCWk+LkErVZfflVmsIuStiZsw+hftXINhqx63PLste1+IrkGHRQCM7mionV6mAIt7zftOA2HAGrQv1s9ggGViCeNAKE2e0kpVhHycGSShCaawZIxVbmBUg/XyY2ApD+d0qaIdqzHsmycsL9nu0Wejc9jR0b/VN+cVsQqmyofVdzDJcSWiTve26oiGJRTJLmhOGWcm1G+WX/4+bAYaNS5Nw7IBrLbhJ6F9xCnRk0MR3Luh9sivFWBlKWCVLfsJSO9Pa1QKGmDNuE+31wyalkRibNT/6/IdPRUakaGhEXI5no6AtceJaB95avRc9iBnv6bayZ8rwFKAFSOBtuqxYZOQR1XzWCUeaHlhw6TMQJOvjGv2OPjW4sweGbNYtoa8xLylCQGJeUvneBrmzfFlFu1iGtaTljewTQFWliCTzTKFfVgaYDENS1KjsvVhGHxhrkqkCMRzuQY/mdIrJjNV9/GlY1xUhhQP1HxYqxVgZTcy+QVY5gqZtrXJDWk6QuygDYXvmxlooSGlKi7KiybI02D1fRZicSU0KmlCQEITNPkyNZNQAZbCKysJSGlYZ0R8WLxIc+6lUnFRYcUziv4Rn6CN2ZlmJWOE5u3hx6BoJ9OwnlImoYKseAlIA5bxl9vyUEZ/4g2OeYuEaRUhHysfV2axQGS/a7M4dRHymg9LAZaCK+8a1r0mEJJQ+6XMIDlWKbouFRqhb4i1r5GXdsTTjJMUIa80LIVVthKQ07DutSgtI8j+SLNKEqAlzYYJRppHCQMXFTh5l19FyMdr4BGNvWjXWqVhKcyyloAUYJ1u0rC8OMRVhLxNIrmpVj6XddRfz0nD4oFCoB0/b83pvkb5sBRmWUhAGrAsqzXYFPWTMgMlzEsTqxTjwOYlYPMuUSLZMGlNUCZjQJbIENSMXZmBgvOO/mjFgpamYSnAUnjl2Yd12j3hwkOWlHkax0V50QSjZmECXlT2Ehcl9WNgAWaO1S1s2ErbEBYZ8ONrgmEN6y+KJVSQ5YElHDgW60+/x+LlYlNVBidw8FJ3SUXIW/h8+Je/98dFQoP1ognyNFgBX2ZYw1KApfDKq0l42t2GSyOgUfHMCV48FzddJkH1orw4xL0EyfJYPCF5yEbep19ohKZhrVWApQDLC2AN3CesYcWYgwKglarL75sZaGEeeQiKjH2MVCbNiZNz6DXHUz8baRAhr2lYCrAUXnnyYTGTUNewuL/0Dj4Qp2BTH8yJOAe8MfeRa666nDdXHgnSBHkabIZGyIc1rL8qH5aCLC8+rH2wnjndeaDCu0R90QyMc8zbFTl0Ec8lBIaZbwbG1MNqYRqWAiyFV15Nwhgflut2+YAAACAASURBVDEXzgOrxL3sDo5lXggD97K71KiEQFvGIZ4BQbK2+yTgFuD9iJn2SdOw1v1NaVgKsbxqWHc7PKIqc/klqgQIsEqxZmCS2DAuGMqagYZ5CznubeRtOS9vcVFR+XrOHRXTBDUflgIsBVfefFj7YP2pd0VYQpl6UZKOZamXifuIQ5wLfjIarMSPQZoGyWrJzwqwFGD5AljR4EEPl8hXM1BCozIKQChROvMvfywrKVk1w3KfEq8JFjEflgIsBVi+ABbrxJH6duFY5vmEVGhERLM1189yUfRQKkJeUoPVD5jH0AhlEiqsspWAcC4hi8NiJqHdYYwBHWUGcmvfKzPQ9kGNopZ1SsNSmGUtASnAOuVOi196l2yYF8eyCo2I3Yc+FiGvaVjfLrI8sOoRiixHMmnAsqzW0IfMwD52+cOankxoSGrMwNg4rHUKsLIcl5xMwlpCcJHeoPSt/0Ug1BHXvo2ZhCffIXn4JeKLpB3iEo+qSodGSMxbOlE4DYoHSsZFxSVQczMGZEM6YssxKw1LoZWtBKouWnYLCL1ab9D/31ch2LndHrCkL79PrJLnIFHZSyQ4b1eEQGbFRYXJQufn5WN8mzZ1riJ2bLw5q/Uf9dhD82Epk1ChliVLOHvp5QSIOKeA4k/uRd72zx0Ayy7tRCwosPfwG4ZwwyqFO7I5/B7NIC8OcU+VVNP0UVWuPPwtHqhpWHVPKx+Wgqx4CVTMevOoQCD0hv6X/LpXULT2mbiGlASwc6+j0HjgeegurohlC53qXHEPu4XPRP9F93L5vWiCXDC0AWeReXPlkSBN0JUZmBpNsHD3etR8q3IJFV5ZSWAuDVRtWLoThBSzP5POnSh979cgoU5LeYWCedi+/+lo2v900Jwiaw3HqUqAEDvoIr5IRchb1Ih3+DGIA+X0CZItbFGApcDKQQKVs5c+S4DTolrWhjdQtNo6+VRv011QiqbxM9C89wlAMNdB4zKZbVFXhY05FwN2kvFcXtgwruaTIE2Qx+LFzcs0D64D3OW8ufLw1ww0+sAKWxlgWZ+/9uEnom3EqdHT3NMdGNf00JSV7HdQfbJEAifc+tExW7Z3vLa+sT264qKvHkX+lre5EujqNxD1B/8ILSOO6G0b9UlF0claE4um+ciaQYIOYFcOcYEKnLwgWRUaEb/fEjXkC1vqUFMnBlghSvZtnD/1CwVY3KvaJxqQF5d+/PDhE0b+sF9xQeBv727DXS9tgA5cOY2foGjNYgRbN3MX216xJ7YdeiHaq/YxHdYUJkrHmD0WmkYmVg7laj6ZaQZGWUJKofmwbABLBY5yr2LfbPDPf39245jh1VdWV5bmm1fIQGv+kk3Y0dqt/Slv89soXPd3BDp3cIWxe8iBqD9oJjrLR7jLOYwBGdMDF7ycQ55jWUXIS2g+hgAzLovr749B4W6mYVlHuptNQqVhca9kZjd4cemKmUOrB9y17+jBlU4rYWC1YOkW3PliXbhZTxfyN7yGwvWvgvT0mo5WfWiM4qhpaDzgHHQXllubg04snucyyg4snlO9KC+EgC9gKBsaIlA8z7VPUMCcd/0KkjMYaj4sBViZDTReZ7/4lfcP2mdU9fN7jageItMXMw/vfGkDFr27Tfsa6WpB4bcvIG/TMhDa49iVxijuewqaxp4CmlckmDhtcWm9mEEqNEKAEDFoSEKgbWN2+lQ80EnDUiahzO3NwLZvr1g1Lkjx2MHjhh/oZfqfb9iNuYvX4Z2vw2ZhoG0bCtc+h7z697ndduf3R9O409A85ntAIMdB43L7THsGxkW5IgRSExcVttLNpW1kzEABTdCgoRa2brDVsBRgca9bZjZ4/6tNlY1bGx45ZP8Rx5cUF/hGojDAYsDFAIx9grvWoeibvyJn52quoLqKq1B/wHloqTkMCBhDFmQOv2EYrm/FRTyXCo2w0MhsNKoEpUtpTvf1qloD90L1lQavvf3p/IPHDb+gpLggkKg1eWIUy0dh24E/RvvAvQ2Xw3QplBkYWy+KKw/Z0JD0MgNj47A2KMBK1MVNp36X/feLOaOGVl5jxfwlap5GRpGGepC/9d/ijOLgCaifcC46S/fQb4+1uch7pp4XF+V42VPHhqXsUVUu+DloVGH70LBP/kfIhzUslUuYqDub8n4Z81czaMAd+4waPDBRk9mwdTuGVQ+w7D6eUexA/oY3BBlFgp0jpqJx3JnoLi63ccwL+EC8sGFCjmb9kspoghww9EII8EDcU4S8TP0siVI8xtPjYM5rPiwFWIm6yqnr1y3zJzPj9z5egxvvfwEbtjbjgjMm4cIZk1FSXGDZhWdGce8T0bT3iaA5hRyNy+gAVsUDvTnEBSL7Xf8YxNa5siyvbREaoWlYG5SGJXNP07rtJ19t2md36+4nRZm/xa99iGHVZZg4YZTwur5YvRk3PvAC3l2xJuY7/fsV4rIfHYULzjCk4ph69cwo7nMKmkcfDQRzBEMhZHIO9ck6lKaJMXsszCNbjSyNNUHf0oUsfGW+ZQyEwVPTsBRgCd/VtG24fv2O8q/Wb1h40Niak1kqDW+iuna0cnU4teawA0bhtivPtDXtWBtm+t336D/x9KsfOHZfM6gcP//RUZhx7EG27TwxikVVqN//bLQMm2joP3EJt8ZiD3xNQNYMSpBDvI+GRoQ1rMWW50qFNfBufZr8fdl/vvzT/mOG/qRfUX6QNyU77Uj/3pnHHayBjZVP6t2P1+C+x/4Zp1nZjclA8LKZRzlqb54YxQEjsW38eWiv2MtgJsqYgQYNyTEB18ZHFRd/5DZdyCVocR3kDvNOlSYYo6FaaLKcCPnCNqZhKcDi3fO0/Dtj/vasGXhVVXmJ7tixnaeodsQ6YKadk0/qtbc/x80PvoT1W5qE5CKivXliFKvHo36/s9FZWqOKB0ZdeDwwSBNNkJfjaQJlTcPaGF9Ekh1EpWEJXcfkN3pj+cpzBlYU3yvC/O3a3Y6Fi9/GvY/+U3qiPJ8U6/e+x/6FnS1tQn07aW+sA0+MIgh2Dp+MxrFnoLugzKBxqQj5eMe7TegBt35W6jVBzYelAEvovqW80fNvfTZhz8FlL4zeY+Awkcnc++gbeOiZd4QBxa5PJ58UAys2xkPPLBca59jJ43DbL2doWpzdJ45R7NyFwroXxXMU9/wemvb8HmhuoUCunMFsEjILVYR8eN/MGpzBvBYy+0ztjaEMDiEdWvKzAiyR65+6NqvX79irqbnxiQl7D/uOyCwY88ec46Imm0ifrI2TT2rDliZNi2NjW3000Jv5Xcw47mDR4bTaW5c/vtpdjmJeCZrGnIjmkd8FiO7ac2L/EhgXpa9YKF1IMsFbKl1I1gyUARWJp9WkK6n2zlvzYSnAEr5DSW3ImL81mzfN23+voaeLMH/65Ba/+oFmqiUCsH4+8ygc5hACwYDrV3csjjrmmSbFgIrFaLn9MEbx7pc3RIFLKkexqBL1+85Ay+BDTO8mquKBYUXIAOJS4GcBZhKVQ+PYVsEIeWUSur1FCf6eKPPHwhPsYqiYxiNqqjktx412xBjFld9sAvNbOZl/xnEZgzl29GDbqXhiFMtGYNu476O9fE/xd/RcB0XKgKGkRsV7UCPOHJNJj+HM25MZ6E+EfGHbRqVhJRh7pLp/76NVvx42uPxaHvPHgOreSIgBA5TbrpxhCVy6j4n5s2Q/fmhHImMaTVgRRrH2X5s0jYs56aVzFKv20zSuzpKh4amZzTRVPDBWLk7xXCkIjShs3YiaTYolFLlXCW2z/MNVZ/Yvzv/D3iMHDXIaiIUn/Or2py1jobz4mIxjhsMajtBCG0S1IwaI+vdEBWUOXjV+j2lmv/3pSbapPjqjGC3X3CORo8gYxZpJaBxzMroLBtg45lWEvAbmCaocGkFFAziKaYKahrXpWcsjpsIaRG+eh3asiF5V/+IXRw6rHM4DKpEoc9aHU/gAi2y/ySKtRh+bRaez9JphgyLlizlrMzv4mbZ37aUn4Jgjxtl+kxe8qn+RFw/G2nliFAO52D7qGDSNPg40GClfb6lxqdCIdAmN0HxYCrA8II7Lr766/JuBlWXBv++/19DDnLrQ46jchCcwRzcDH6uEZOZjuun+FxCTmvPLGcJA5aQdsfX4pe2xvhhwMW3LKdXHklFc8yzyGpzTiFj/3Xn90DT6e2jeY2q46qkjxS7BhnlJjxGuEuEisj+DI+SVhuUScNx+rbm5ecDHX2+uFWH+mPbCqiGIBmZazYmnpTBGceigAY7Mn7FfUe1I/w6Lu7r20hMtU33MjCJPpiLamydGsbAC9WNOQ8tgQw6kOXKce9kjq7AKYfBSMsbJt6YNmZq4qPhxTfPw2SeoaVibn1MmIe+y+PF39nzWgWOHX8PL+Xt9+ee46QHx1BeRuYkkJPtlklr14+STSkqOYsPHKFr7jNg7iv33wLaxZ6K9LFLBwghaXM3HHzYsjEHmyy8DhrKaoMO8PT8g4XLeFuNqGpYCLJEr777N8vdX/XTEsPLbq8pLini9yGodvP7Mf9939GDNvBItJ+Mltcc8toi2Jxo/xkzOB+f+kEsKeGIUK/dF/V6norP/0OwqHhinsYk5xKNfE84YkAzpICRcXkYBluy1F2v/0cq1p+Xl5PxJ9vks1rtsgrHYjHpbsQv/20tPcox78iu1xwq4nHxSTjmKbN684FXzeJ4ZxaET0Tj6RHTnl4a7jtF8Ehgh3xcrh3p5V5K9/Ny+SQGW7GXntWfMX0le3qKxew4ea9dWj6Na+c1mR4cy8zHd+MCLnvxYTvP1wijy5GD3dy3WiuPgN+cougleNY9vyyhuXAqCkONyQoxRHH4UmoZ/FzS3QBUPjIK2xyBZyeKBmoa15e+We6XCGiRvJHs+i3R3PO/E/NmVeXFyKMsmGEtOW2vO2ES7EsfMx3TV7Ys9p/q40Y6Yifzex2uFcxCZCfvuitWOYRVxjGIre0dRkFHM7YemEUejuebI3hxFx1AIyXguro/MJsQizoyT1ATT2AyMeTWH+bAUYLm54r3foZSWvfPRqgf2GTnobLvns9hFYqkyzNxx+jiFAzDgYqyhXYKxt1X01sG67EdHW3blNkfRD+1IZG1GEzbhjGJBOer3PBktVRPCOYo+s2FCtdhtQUqgHDPvNSFbzUffidSUkdac7gqwRK6DdRtWRG/8mJpriwvzIs8Wx7ZzG0flZKoxreOmB1/S/FyJ+PhVTkY2tUeX1catzY5R7uY1O1WnEKl6+srHjZi7+FstCJV9chijuOZpBNu2csXbXlKDbXudhvaykbE5iuybjhVJDQ5nbqhEGlYO9aIJSpqBMRoW82EpwOKey7gGjPkbWVN+W+WAkmK7b/tR5oUX/ClTslh2lYxRvP1XZ1k65pm2pydXm/t1m9pjDI7lMYpsTBYTduVti6LBr07rc4oH07/HkqvZy9WuchTL90H96JPQWawnb2dHXJQvmiDPnI2CI4HSsCRvsQjzxxzqv/LB56NPjXd53ZpqTksX1Y7MdbC8pvZYgZ8ToyhbkSLhOYqDvoPGEcehu6DUwjEfWZ2jhqGpZrEvO3PThQzthTQfwzyMmqAvZqBM5L3gvA0ZAxpLqDQsPmqx57NoT9czTswf64WBx5W3W7+bxh/FuQUzb568Y7ZtI9mSxVYdudGOWD/MMc+eCxPNQeSl9pjnJkJKiFak4P0AsLGZljVn8TosenebNhXSuQsFdS8gf+MyMUaxZiqahk3rzVH08sK0lwj5PhYaoWlYW/9heQcUS8iSa9fvKG9saf7HvqMH2z+2ZxKfbOQ2D8i0XLpLTxRiyrwwirLaEW/eVn+XTe0x95GKHEXm32J+LvYJSDGKxWiq+S6aBx8ezlF0rJmuIuTjczjjNUFNw1KAFX+1GPP3wWdr7x1VU3WeVSoNu3isHtXYUYMSFg7gVtthq+GVLDauWCQuythejyGbOH4k7BhFs0RlXu0RAUInnxSvIoWxf1GQ9pSjmD8A9SOPR0vl+MjQAiyeKh4YlpWJuAhrWM8rDcsogTDzN+za4sL8OObP6uLxXpdx42NiF4n5bkTrUbF5Wb0l6JTqIxsXZaUdieQosqqnzNfkJYnbDsRY/JgdaJorUngBaf27nhjFfsOwbdRJaC9hlYRUhLxUrmQYvcKR7gqwwsfxv5+svXhodf+7rJg/kZw6P8IBNM3hkhOkfEG6g1+UUZSNixLRjpxyFJ0YRRFtyq6NqHZk/MGQBWm7sT0xigPGoH7498KMomUpG8lg08hljtFIbB318WZWbJE+ycdgk6wJahrWtizXsD5btfHkIKH32z2fJZtT5yb4U/YiGUskGy8Vz6HMtA6nRySMfYmAtPlCO+UoypipTkAma8LqfbG4NfaDIPJhIP368pVaMUSremKsD885igMPQmPN0ejO66+jiMEMkgQtIXbQJp7LCyEQB5aJTZTWNKxsBSz2fFZr245n9h4xaD+rQ+w1jsqpPrke/PnFN5vxm0tOkLpIIpVHRUw1p4vr1Yzz88l7fZ6yoC4CTOY2ZpDm/QDowOWJURwyGU1Djgwziqp4YAS0rTXBsIb1guXW9lmWkBXRW79t17N7j6iearVyWcqddzF4sT+877O/i6b2mPtyeqAiESBt7tOPHEW3JizTki6beZRwKR0nTVrkB4BFyrtmFHOK0TR0CpqrJwq8o6hLWSQ9JrFxUZZmqK3GJpMobT3vwg6mYWUJYPGYP+ZruWTu45YPPIiAilMbkV9qq++7Te2xMtWcLm+i1/7n639oCxx2pIRo8Kq+VjsT1knbY99lZMIlcx4XSu4W+QHwxiiWob7mWLSUj4u8o2jSNPpaaITko6qFbZtQU58FgMWezxozatD1Vsyf8XL75WexAy+R+uT6d72apFZz4OUoGh9B9QrS7Pui2pExfox9z82rPby69zxSwljjnrf2hOcoFg/Btj2OR3vJHtHwrfhXbCTKEYdVoYi5JelYj0bAW5hpWrfm13VMvjKhXEkxTbCwfXPfBqwVX9ZdWF3e796Ksn79eIfQ+HeZWB6ZfvW2vGoCiayDxavW6Ufgq6x2pMuFARf7n2jEvCyo8zRd2RAUnvbG1uWJUSzdE/U1x6CzsNoabBw1LosSM1wfmQFsElg5NC6kwXFevWCmOd37ooa1et22E7pD3ffzns/igY1TLA/vuyJ/d8MoivRr1YaB5K1XzhBmCWUvLxvTS7CrzLq8+hl5PinZHEUn7Y2tyzOjWHkAGodMCzOKrp+XN+UocjUflxoVL1dS0gwMrzcMWoUdfUzDYsxf886mR3nPZ8lcDtbWzeWVGYP3uoyXcjIyqT1WcxbNURSNizKbvBMnjMTP2VuI1QO4InN6SJb7ZYsGfryaLQPSDLjuemkD2AOw7COdo1h9OJoGTQIN5FloXGazr++FRoQ1rBcttzqjWELG/H39beMTB4ytOd7NwRX5jpc8PZH+WRs/X5eRuUhsbOa03rBlu205GeYjYuEO5oh1piVee+lJYMGjIh8r7YhnqrF+GYvHNJ9EfNgPBivbbJVZ4OTXlAVpfe7mcs1SOYo5RWgaNBnNlYcAgaBDKISFhuQYr8Vh8VwHiTIfl0yupGnehnHDGlYGAxZj/j75av0dNYMGnM97Psuvg56oyG19frzLK/JAhWxqj9EXJBr8yQDq2p+eJGxiiiQ+i6Q5+VnjXgbUjb49t8Gr5jPoiVHMK0P9kOloGbBvpFtJjUr7lkhohMXrNrwifDyz0CX4aU73hgwFrA8/W3tVdWX/60Sez/ILrIz9JJJRFHFaWznmvaT2mGXEYxRFHeMiqT3msf1Ic+LtuVvtiO276NoZSDOtlI3l9LQaA67LH1/trupp0WBsG3oM2otrBMxEU0144Qh5GTCM1rSxnk9cJVZxTVDTsBpeyiyTkBXRG1xV+mh5ab8S3qFMxt/9YNWM82SUPgu4FEl81s3UL9ZsxvmnTxLWduxSe6zk5RT86SRfP2LIEkFK+KUdOa3dCqRFGUXm42ImIw31IH/rOyhc9w8EOndwj/LuktGoHzwdnUUDU1M8kKexGfK9LVlCpyfAIhqZ5sPKFMBizF8Pev44YkjFSO7upaCB19dl3P7iyyzVjbbD+tfNVNFyMl5Te8xrEklz4tW4l03t0U3YjVuaNVKA7Q/vI5J/mXBGccD+aBw8Bd05kUge45NcPFCJ/l0sLircXL5yaO/3BGvfR8AsIzSs9dt27Lmtvukxv5k/3uFz+3dZRlH2IjHtaOigAUKsmr4Gt6k9MqYaa8s0vnOvqBWqs+5GvqzGvB1w2Gm6osGr+nycnmK77coZtqYdi91jaxcpo8PzU7K5eGIUSQ62V01EU+WhkaqnDr4qKYd4akMjNA2r8eX0NAmZQ/2jz9c9ut+YoSe7Odyp/I4Io8gukmzi800PvBh9LUckR9EPs8xKjrxyMoxRFC1ZLLJPMqCukxI7Wtrw85nf1QosinxEtCPWj59VT3nxYGw8S0Zx3bPIq/+Au6zuYBGaqg5Dc8VBAAmE21uWnnFg8Zwi5Hkamw9mYMyrOcyHlW6AxYBq5aqNtw6pLrvQ7vks7k6lSQMrRlE2LopdJPYe4dOvxh9Q3i+1VzPVSYw8JtIPUkJWOzLOl8lexA/IviNbQoh9x8+KFE4/APqaPDGKuaWoHzQFLSV7R4DLSeNK3wj5tNOwPv2i7oqK8uLrnZ7PShMskpqGfnkZu3TBGZOELpKMdsTLUfQz1UdG22FCcpPmpIcbMIe/yIfJyq5uldP3ZVN7rPri5SjKvJrtFFJiBC4jo5jb+DEKVwu+o1gwCNsGTUd78TALx7wBxGIc4JGRue8sRr6vT9SsyVmGOsjUz6Io7NySHhoWY/6GVJU9MqC0WK9mJnJO+2wbtxdJ5HUZq+BPEUHKmrDmPkXTnJhjXxTUjdrRvnsOFi4n4zW1x7w2nqYr4tcUCWUxjstyFF0zisUjUV89BZ35lToaGcxFmRAGmZIxFvFcksUDtTisphT6sDZtbTyupa3zgXRl/kQusp9t/HrT0M9wADcm7GvLV9o6x+0uryxLagfqTowi2ysG2MzETsTH6Sk2O7+mTPCqec6ecxRLx6Gx8nB055UYNC6TRsULApV6SkwGDOMj5As7tqQGsJqb20et27z1UZnnsxJxwNKlT5m4KJk583IUncrJyF4kswnLcyjrCcZMM5JN7WEvFr27Yo2jKPz0MfFkLqMdGf2asiBtNw9LRvHbF5C/SeAdRcYolh+CpvJDQAO5vZqWQFyUbdUFp8dgbYNV+a8JaWENTa9YiiEhuYTMof75qg3zx4yonsE7BNn0d9nqALKykc1R5DnUzeM7mbAiDmWR9bhJfOaZaiJpTk5zkwV1kXVatWE/aA89+w6OmbSvYzyYN0axEE3lh6K5bHyk6qmdY17GDJTUqDivCWk+rGQAVi/zV3ohr4ie203N9O+lOkeRmWrMz8Qc3aKpJzImrIhD2WoP3Qa7GvtKBCkhqx3ZPcXmdG6t8i9FfgA+37AbcxevA2MW2Se4ax2Kvvkrcnau5l6Trtz+qK88Ai399oogk1ORPt3RborPsn21x6J4oDYjHmsZnnZSNKy+yvxxd95lAz/CAXhaAXvzUCRy264fLyasSIoKG1eGJRUVtR+khGxqj9HBL5rmJALSIj8ADLAYcDEAYx8pRjF/ILZVTUF7wZCIeEUSpRMbIZ9QDYs9n1VVVvS4Yv5Er1NsO79zFM2z4FU9TZS2o/frdHkTWWOejX/7lWdixnEHW24MG5s55ZmZa/z4VZ2Cl+bExj/5kj8K1Zhn8xP5AfDEKBYNR33FpDCjmOLigZqGtf1Vy31z7cPa2th8zK6W9gf2GFw+2t1VVd8ySiCRwZ9sHJH65H6l9ph3lnd5RcIBZE6LjHakv5qt5RLO/K4twJnHF9GO2Hf8rkghor3pxQOZkx49Hcjf8AYK178K0tPuKEYKgp0l+6CxfCK6g8UGjUsmQl7/mtGMtIi8d6ghr2lYfgFWW1vbyG/WNzxk93yWzMFSbeMl4PflNY/ghVH0sl8i1Sm8khKy2pGb9Yim9pj75qU56WsXmRPvB4D1oYdC3PlindYl6dyJgm9fFGcUyw5EU+kB4aqntrXYTeDkU2hEWMN6zZuGpZg/kaPkTxuRHEWvI/Eit+8TCCkQmYNs7S597TI5irKpPUw7Ku1XKB017ya1xywj0cKJIrJl637w+h9aVo/Vv29mFEnrVhSte04sRzFQiKayg9Dcn71BbMhRTHCEfFjD8gBYJ8596+g7Zo5+fnRNZYGIIFUbfySQDozifY/9S9jPYly1bGpPnMm1pUkrlWz2MRnbuUntYbXrWb88RtE4jtuMBKdT4DV+TBakPTGKOSWoH3AYWopGW5dB9vlRVU3DavYAWJWzl5wTaN/x1C+P6o9Zpx4i/cvkz/XN3l4SzSjygj9FH6hgOySb2sO0HWYGM+e41QMVdqSEbGqPXe0uHinBYrhY4K1IORnZE8p7is0qfkwmeNVqPp4YxbwqbBtwBNoLBjmYiWaWUb6GvKZheQUsAvIUE8CA0HZcNLk/fnHekbL7o9p7lEAyGEW7WlA8M9VNag/TdBgY6h+RJ+8PHT9CKoZMVDvys5wMb5tltSPdr3nGsQdJ5V86zcMTo1hQg/oBE9GZWx4ewufigVpqjl+AFZ4gMDy/CVecMAwzjjmAtz/q7z5LIJWMolnbk40C58Vd8R6oEBWl2xiyRJISXrUj0bXrIH3GsQdqdcKcKlyYGcWCDW8gv+4VBEIdjsNpjGLxGDT2PxjdOcWxoOWlhjx7l7BrqzfAwvlLCipzyP+C4BoC9D4sF+rB+NLtmHvu/pg4Pi0rGovucUa2SzSjyHugghXwE61LzwQsqu3opqVoyWLj5rlJ7bHafNk0J6cDJAvqrC8W/T5W8Ek1fWynp9Wcyl57YxSD2N5vPJr6jwclhhxFo+bllHOoa0CG9pqGteN1S5FKb+kjewAAGyFJREFUxWGVXvrWgNzu0K8JQv8LkPxojz0dmDyoFXNnHiQt5IxEijSaNM9U82OqvPrkvDFkUnvMfYnEj7HviMZF8eZq/DsvR1HkB0M2tUf0KTbjPEWeVuP5KVl/3hjFAjSVTEBz8dhwjqJMxVOTRlbYudUfwNKFVH7BsppgkN5ECX5IonwngM5W/GB/4BdnH4xhg/gv/MocHtXWWQJ2kdt+yY13ea3GcWuWWfXFKyfDotaZY93vj4gZZ0VKyASvsjk7ycpJ05XNFhD5AbBkFFc9hZxda7ni7Qr2Q33/Q9BSOKq3LbfIX6RppJ3mdPdDwzLPdsCsJfvlEHI7CL5n/Btpb8Yvjy7DrFMOUowid4v9bcB8TF6evOfNRuSXOhHajj4vr+EAvPUZ/y6jHema7nufrMHPZx4l/BSbjAnrRErIVqTg/QAwOXhiFHMrsa10ItpzB4ZFyk2U7gUtzYeVCMDSN7dq1rIpCNB7AcR44MtoM2YfUaIYRZlb4lPbdGYU3S5R1BfklZRgl1mmdpeb9bgFdV6Uu2yZbFc5iluWo/Db58XeUcwfivp+B6Mzr1y4eGBYw3rDUqxSPiznjaGkcvbS7xNKbgZBrz6oGEU359m378j+8soOnKxwANnaXWwdIj4m43plU3sY6LCPVfyYnRx5LKmo/P3MUWQgePuVM3DMEeMch6/91ybc/fIGLe2HRHIUhRnFgtFoLDkA3YGiiMYVawYaS8+ENayEA1ZkAhe/n1sVarkUBL8FoBeTBkI9GJ7XgLtnHYiJ40eI7otq55MEZH95ZYd1+qV280CFPr5sao953iKkhGxclFk7EnmKjc3L74dnWZ+8HEWrihRGGclmJJjLNUvlKCKI7cXj0FQ4LlL11LqUjeZ035kswIpIo/LCt0tooOuqACH/ByACqwB6ujB5UAsuP31fTJygQiFkgcFLe5HL66V/9l1ejuJN978g9ACr7EViTmvGsDFNbOIEg8M3siC7p9j0pGyRdTtpRzxSwquZ6jQ/XsS8lV9TFqTN43tiFEkBmorGoblo79gcRTaIHoe185+WS/bRJLQWafFF71YXkvYbQemFhDC+M/JRjKLIHUlIm1Qzik6mmpvUnvse/WfMe468J+9ZhL3MU2wy2hGPlJBJc+JtvqwJy0Dz4WffwaH7jxB+eJY3BwZc7DmymKqnooxioBj1xQeiJW94OEcxkpOo+bBSBVj6gitnvzUGtPs2QsipRiEwRvEnk4rwi3MOU4wi73T4/PdUM4rGcjJ+pPaYxSPiUOaJVCbY1dgXAy63aU68OXnVjnj963/XTVj2gMhvLz3JMcbS/ACsVNXTnApsKzoY7XlVqdewzMKpmPXmoSTQcx8BmWj8m84ozjrtOwq4RE+UT+1SzSi+vnwljjliX98fnmXi4ZlqdiL0K4bMT1LCTXUKp6fY7NZuB9IiPwBxOYoyjGLuYNQXHYBgqBM1u1JkEtoJpWL20tMJpbcQQpghG/4wRrGgGVecMBQzjp7g03VU3YhKIJWMosgc3Wo7OnCxOCbms3L6yMRFicxZb8NLc3J6io314aU6Bc9M1ecoCtIiVU/dMopsLq05A1HUvc1SvAn3YTlu6lk0WDngzYtIiM4FwaBe4KIYnrtNMYoyN8LHtqlkFK2W4SW1x9wf7/J6rXpqtw0i2pGVpisTvMrGdgJ13sO7iap6On/JpnAohETVUzs5phaw9Fmd9U5hZWnnLwFcSQhKopNVjKKPMCTXVaoZRTZbkRw5uVX1tnaq/Ol34URZ7Yj9YLz2zhdaYjlzrIt8RLUj1hePlJDJlOD9ALDxvDCK5rWnB2BFZtXvgjerCnPodRT0JwSIpH5HchTHE/zi7IOkgvRENlq1cZZAOjOKbvdO1MHvlZSQ1Y7crMeLCetnmpPIO4peGEVdNmkFWPqkSi9ePjqXdv2OAGcbN5F07MRPDi9QjKKbk+3xO14vL2943i+1H6aaaGqPea6ypIRsag/TjtjHKn7MTm5uU3vM/fFICVm/ptPTavrYcYxiwwoUrlmMYNtW3jFBWgKWPuvKi946mKD7XhAS4ylVjCJ3XxPWQPbyyk6EF7nNanDJPFChj+8mtcc8d97llY2LMpu8IpUU/ErtsQIuJ1KC59eUBWk2vhtGMa0BKwpcs948kZDQ70HAnu+IfCiG5+9QjKIsIvjUnnd5vQ7j1+sysqk9ehE8VmPejlE0X17ZuCiedpSoNCfenvBMWCu/pixIW83ByCiyTJiCDa/ZVj1tH34i2kb0hnKGKNm3cf7UL1jYaXp95tJA1YZlP6bADYRgWC9uKUYxlRvF++X1Oje3l9dNas+9pqfNRBKM2fqYZiLykdWO/Epz4s1NVjvS/ZqHTRgl9fCsU5K4dY7iC8jf9CYIQtEltI46Ex01x0b/u4fSmqb50zekH2DpUzx/SUFFbuAyQunVhKCsd+ZdmDx4Ny4/fawq18w7oT7/PRmMIu+BCj1H0Y/UHrN4REw1nkjdJj7zfEyyFSmM8/RDO+Kt2wjS7C1IXtlrBlxzFq/DonfDcViBtnoUrn0WefXva//dMu5SdFUeGB22vnaahlXpC1iRqYbLNfdcS0B/FlOuubsDJ45qx3XnH6YYRd5p8vnvyWIU7eqTM/8a+9UX+bh5wVmk6J15bC/Brsa+/CQl3JiwTk+x2cnbDqRFGcW5i7/FKx83hoFr90bk7PgGnUOm9g5H8e/6+dMmZQRg6bNm5ZoDQfo7AOcR0gu0jFE8Z39gzkXTVKqPyA32sU2qGUXeUry+4CySoiITF8Wbrxm4eDmKdqSESPCqcSyzCcvT9vTvioK0k59S78vMKBrnFwK9oLF2+sMZBVj6ArRyzQFyJ4BeAxeAYhRlroO/bVPJKFqtRPQiiUiBd3kTRUqIaEdWD+/KBq86mbC8p9hk/ZoiPwBM02IaF4vl0j4Ur9TPn3a8vldpbxLaHSrrcs0UA3oacP2ZI1SOosht9LmNFz+LyFR4v9TMVD33ilqhOlwi4xnbsMv75+t/aBtDJXt57caX1Y5YP6xwIhv/gjMmaeV0RD4yoC5CSjDgE301WyRH8R8fbNtx43PrF3586+GXG9eTsYClL6Ji9tKZhNIbCSHDjQsbkbMNc76/N46dNFZk/1QbHyXgZy0oq2m5ZRTdLlHUwe+VlJDVjtysx4sJy8tR5FU9Nf8AMIB1ekdxVV1D51VPfHnCC3O+Gy3pkPGApQnh4vdzK0O7fkaAa0FIRVQwoe5I1VPFKLo53F6+4/XyiowtyiiK9GXVRjS1x/xdWVKCFxdl7p9pR8wc5L32bPyel9Qe8/h+5ihaRcwzn9r1tUvwl08paP6Ac+rnT/2rPoe+AViR1bByzSTYfQ2AXwAojApaMYpu76zn71n5WTx3auhA5HWZ+x77F9ZvaRIe1m1qj3kAHikhGxdl1o54jCKbDy94VVgoFg295ChagTQDqgXP/Re1y3eimUTeO6Wk7wKWLtPKC98egkDXDQDOjynX3LELPxhPMGfWFMUoejmpLr7LLi+vFpSLbqNf4V1e0RxFN9oOK93M3i1gsUdWQZNmUkI2LoqnHYlUPXWT5iSyH7KkhB1IL359BeYsWovtOdWxwVbZAFi6oCsuWjaWgN5KCE42Cr+M7MLsw4ugqp6KHEl/26SSUdTNVKvL6+YF51/dvjhGcxO5vEyLYOlAIh9Z7civNCeRuZnbiDCKQwcNiIufe++Ttbh8/odY1zUQCPQ+BRHtP5sAS1901UVLj6SgdxNCDCeFoizUhBtmDMeMo8e72SP1HQ8SSCWjaDRTZVN7RGp38S4vT2yyqT3m/pJNShjH52m6etv3Pl6Lu55dibe3FAHBfFuR0FDgpIYFU17UG/QpHxbvIFRctOyMAOitINizF8Ephuc1Yu7ZY3DspH14Xai/+yyBVDKKDLhEwwBktR0mJtHLaxSp29Qeq21JNClhdxTYup+4Y5albDds2Y57/vYBnvoUQF7vq4C2x6qLjKl/eOqqrAQsbdHTluRU7ElmB0DngJDqqKAUo+gzFIl3l2pG0WmmblJ7zP2J5CjKxEWJS7b3cQ678AE/NV2nYFcmx3uefAd/frcdtKA3NZizlhX1tdN6EwozIZdQZnOk2s78uLiqoOn/AMJYxV6oZ4zi6E5c9+NDVY6ilEC9N041o2hegdfUHnN/WgmcS0+0PFc8RtGrdHnanigpYTUPJ1bVkvkTW0wrCD2uft70t43Ns8oktJJTv0uWDyzo7r6eEHpJjGA6d+Oc/aliFMUOl6+tUs0oJjJingnK6cn7dCUl7DZYf1GbgZb5w5i/O1/ciG87B0iVWaDAyu6e4LnNC4/82Nxn1gOWLpCqWUv2BCG3gOBMo5AUo+grFkl1lmmXV2ZxIozizQ++JBU/JjO+V0bRKfyDy/zZTZTSRorALQ3zp7JcYcuPAiyTWKzLNYcZxSuOq8aFpx0qcy5UWx8k4KefxWo6Xi+vlyVq0fQ/PQkMAKw+fuUo2s1RllF0YlUZUN29+DO8tbWfI/MXNxdKG0MkcHsjKf4D5h3S6iRPBVg20qmcveQkAL8nIOOiTWiYUbzixD0w45gDvJxT9V0XEkglo8gSjG964AW8uyL8kITfH+ZjuvbSE3DMEb3HTR8j1aQE03RZjX2W+2dVh0xn/rRUmrxiYdFQiiYC3Ik8el/9/dNbRL6oAMtJSqxc88Y3z6cI3UBAhkabMkZxSBsuP3WMqnoqcsp8bJPoy8sz1djl1aue+risaFd+PnkvOz9empO5P5fMHyhFM4C7SB69WxSo9LEVYIns6vlLCqpyyf9R0KsISGn0Kz0dOLK6BXf8dLJiFEXk6GObRDOKTON5/sH/gZUzmS0j0WYqj1FMZJoTA80n75htu1sa8/fsf1C7fAeaA721BnjbS0F3gOKeUFvhXU1PHLaT197q7wqwJKSmlWvuCl0H0J8Sgrwo6kcYxV98/zsKuCTk6UdTvxlFmcTnRGt7TD7JZBRFqlP0Mn9lABGDD0qxixJyb09X6M7mh6cz7cr1R2xE1933zS+WXbJkRE43uRnAD4zlmjVGcVIxZp16iEquTvLW+8Eoun3T0O8n782i45mpXrU9EZB2yfwxv9QfOkJ5d+xcMEm8XIbD2VGA5eFilV341oScYPe9BMRQMR8oCzUqRtGDXL181c3llX3TkJlEJcUFcdNMtJnKYxTdkBI8kHbJ/LVS4I8dhN6+a970Bi/7af6uAiwfpFl+8bJjg5TeCqCXOmSMYv52XHHCMMUo+iBj2S5ELq+XxGcvtaBk12Ju7wejyANpl8xfGwUe6CD0Fr+BKup+8So89X1dApRUXLT0PALcFFOuOdSDyUNaFaOYgoNiV05G5IEH43SdEp95CcZXmUrQ+CkGN4wiD6RdMX8U7SFC/9wRzPtdy4NHhB8aTNBHaVh+C/asz/Mqy+r/BxS/IQS9LwIoRtFvSQv3p5tqr7/zBX4+87taaWGRj2jiMy8cwI2ZKjI/vY0Io7hxSzN+c8kJYG2tPu6YP9oBBGopIb9rmDdls8yc3bZVgOVWcpzvlZ/3bv9gUduvAfJzY7lmojGKBL84+2AMGxQpA5ugOahu3UvATeKz36/LyM7eiVF06kuW+aMUnQAW0Jy8mxsfnLRRdp5e2ivA8iI9ge+ycs0k0H0TJfgxAQL6V8oCuzH78ELFKArIMJlN/Cjz4vTicTIYRadUH6MsZZk/CnSB4iGak3dDsoFKn7cCrCTdBq1cMwndTkBONA6pGMUkbQBnGPbAA3umiqXg+PVJdo6i6JuGsswfBbpB6SM9gdwbts+bXOeXfNz0owDLjdQ8fKd89rJJAUrvJQSHRLtRjKIHiXr/KovhumTO48IPgcqOmAxGUeRNQ1nmj1LaQwh5rJOSG3bMn7pWdt2JaK8AKxFSFeizatbSs0Dwu5hyzYpRFJBcYpokI2o9EYyiyCs/mkP97+/jjn/uFKr2yYAKhDxJQvSG+gXTv0mMxN31qgDLndz8+ZZWrjnwkwCh1wEYGO20pwOTB7Vi7syDMHb0YH/GUr0ISSAZwZ9OLx6LMoqibxre8/ibwjl/FAiB4i+E0jnpBlTKhyV0fJPUaObHxZUF239FKL0ChPTW5+hsxQ/2h2IUk7QNxmH8zlE0L8Etoyj6pqEM80cpKED/hlDunIaFk79KgbiFh1QalrCoEt+w3wVvVhUE6Q0g9CIC5ER/Vdqb8cuj+itGMfFbEDeCHzmKTtMWZRRFg12ZQ33uk5/ikx0DrN/5M0yGARUh9Jme7uB1TQ9NWZkC8UoPqQBLWmSJ/0LpxctH54W6bgPBGcbRBoS246LJ/fGL845M/CTUCDESEDXV3IqNxyjyniP7Ys1mXP/I+8LVPinwXA8h122fN5U9uJUxHwVYabxVFbPePJQEeu4jIBOj06TA8PwmlaOYon0TyVH0MjUnRtGqX3nmD88TSubUL5j6kZd5puq7CrBSJXmJcStnLzsFlP6eEIyNfi3Ug/Gl2zH33P1V1VMJWfrRNFGMokiZF33+8swfXiKUXJupQBV1j/ixgaqPJEjgLBqs7L/0AhByPSEYEh1RMYpJEL71EH4yik7PZZlHl2H+QOmrNIRrGxZOfz9lgvJxYKVh+SjMpHR11juFVaWd/0cJriJA/+iYilFMivitzbImuC1ZLBJHpY8pxfwBb4Qo/W3T/OnvpkwwCRhYAVYChJqMLkt+9F5FXn7rbwkll8aUa2aM4tFlmHXKQarqaTI2wjCGDKPIK/NinLoU8wcsIYReZ34xOcmiSNhwCrASJtrkdBwp1/w7AOfElGumzZh9RIliFJOzDTGjODGKLDzh1itnWD6XZZ6qJPP3dncocPX2BVOWp2DJSRtSAVbSRJ3YgSzLNStGMbFC5/RuZBRFHnjQu5Ni/ihdHqLBOY0LpvwzpYtN0uAKsJIk6GQNUz5ryfeCAfweIBOiY4Z6sH/pTlx/7jhMHD8iWVNR4wBaQvXry1fimCP2tX0yTBeUFPNH8W5PgMxpmjf1tWwStAKsPrnbrFzzmzMJoTcSYI/oEnu6MHlQi8pRTMM9F2X+KPBfAsypr532chouI+FTUoCVcBGncACtXPO2nwPk1wToLW/KGMXxrOrpQeodxRRuDxtalPmjwIcAndNQO/2FFE85pcMrwEqp+JMzOCvXHChsv5YA/wuC6PtUpGNnOEdRMYrJ2QjDKOLMH/1Y81HNn/L3pE8yDQdUgJWGm5KoKYXLNXf9jhIyM6Zcc4RRnHXad1QoRKKEH+lXgvn7NETJ3Mb5U54FCE3wtDKmewVYGbNV/k2UlWsOEHongOOjvTJGsaAZV5wwFDOO7vXX+zdqdvckyvxRYCUBub6+dsoiBVTxZ0YBVhbfo6pZy6YgQO+NewA2dxvunnWgYhR9OBuizB8FvgTFDQ3Dpv4Vc0nIh6H7ZBcKsPrktsosipKqi948GyR0M0BGR78ZYRQvP31fTJwwUqZD1TYiARHmjwKrKKU3NA6b9qQCKv7RUYDFl1F2tLj4/dwq2nIJKH4LgqroohWjKL3/YswfXR0KBW5s3DnlcSwiPdKDZOkXFGBl6cbbLbvywrdLaLDnVwHQywEU6e0Yo/iTwwvwi3MOU455G+Ex5u+uv3+NtzcV2Vf7pFgLQm6qXxV6FEund6vjJycBBVhy8sqa1sUXvVtdiPYbADqLEBLUF16mGMW4M7Bh63b88v63Hat9UoC953dTA+n3MOYd0pU1B8nnhSrA8lmgfa27ytlvjQF6biXAab1roxievyPrGUUR5o9SbAChNzeQkgUKqLzfDgVY3mWYFT1Yl2umGJ6FjKLO/NX+uw3Nod5HjowHgVJsoiC/a9xRWYtF4zqz4pAkYZEKsJIg5L40RMWsJaeRALmFAPtE18UYxcG7cfnpY/t8ueaFz/0Hd766Fc2BCuttpdgC4Jb6wqF/xh/26uhLe58Oa1GAlQ67kGlzYOWaS9+cBULnEqD3pdfuDvxgv1CfzFEUYP62UeDWhua8B7BoUlumbWmmzFcBVqbsVDrOk5VrLuu4glLyK0JQEp1ixy78ZFIh/u/7h2Y8o8hl/ijqKXB7w468PyqgSvwhVYCVeBn3+RFYueaCvLY5lOASAuRGGUWyC7MPL0Im5ihymT9KG0PAHY2Bkvsw75DWPr/JabJABVhpshF9YRrhcs1a8cCze8s1ZxajyGP+KLCdUHIn8kL31t8/vaUv7FsmrUEBVibtVobMlZVrzg10/wmEHBGdMqUYnteIuy8cn5Y5ijzmj1I0g+DuUGvBPU1PHLYzQ7aiz01TAVaf29L0WVDV7KWsGsStAPaPzirUrVU9TSdG0Yn5owADp3u6u+jdzQ9Pb04f6WbnTBRgZee+J2/Vc2mgYn2kXDNBTXTg7g6cOKod151/WMqqnjoxf5RiFwW9r6cbdyigSt5x4Y2kAIsnIfV3fyRw/pKCiiD5OSG4hhCUGRlFVq55zqwpSWMUHZk/SncDgT900Nzbdy6Y1OTP4lUvfklAAZZfklT9CEmg9NK3BuR2df+GEPwPQPKTyShymL9WSvGnjgC9bde86Q1Ci1GNki4BBVhJF7kakEmg/IJlNYEcejOA83rLNVOUhZpww4zhmHH0eN8ExWH+2ijwYHsw9/ctDx6xzbdBVUcJkYACrISIVXUqKoEBs5bsl0NwBwg5LvqdCKM49+wxOHZSbwaQaJ96O0fmj6I9BMzryMm9WQGVrGRT114BVupkr0Y2SMCyXLMHRtGe+aMdoJhPA8GbG+ZN2aw2IbMkoAArs/arj8+WksqLlp1DgJtAMCq6WMYoju7EdT8+lMsohpm/OnzbWQGQ3uNNKToBspDm5N7U+OCkjX1ckH12eQqw+uzWZvDCtHLNu38K0GsBVOorIZ27cc7+1JJR7GX+CoFATq91CbBieQ/3kJybts+bzIroqU8GS0ABVgZvXl+fulauOdB9dYDgF8ZyzWUsR3FSMWadegh2tLRZVvukQDcFHg2RnOsVUPWdk6IAq+/sZZ9dSaRc800AvcBYrnlAqAnN3fmgeb1F9CilPQR4vBOB63fMn7q2zwolSxemACtLNz4Tlx0p13w7AU4xz58CIVA8SSi9vn7B9G8ycX1qznwJKMDiy0i1SDMJGMs1R4DqrwjlXN+wcPJXaTZVNR2fJaAAy2eBqu6SJ4GK2UtPp92Br5oemrIyeaOqkVIpAQVYqZS+GltJQElASgIKsKTEpRorCSgJpFICCrBSKX01tpKAkoCUBBRgSYlLNVYSUBJIpQQUYKVS+mpsJQElASkJ/D8eU8SBpbSO8QAAAABJRU5ErkJggg==;rounded=1;dashed=1;strokeColor=#232F3E;strokeWidth=3;fillColor=none;" parent="1" vertex="1">
          <mxGeometry x="-2280" y="222" width="90" height="90" as="geometry" />
        </mxCell>
        <mxCell id="EWTi3nRZQ3Ram_rcYh2X-22" value="Mobile client" style="outlineConnect=0;gradientColor=none;strokeColor=#232F3E;dashed=0;verticalLabelPosition=bottom;verticalAlign=top;align=center;fontSize=12;fontStyle=0;aspect=fixed;shape=mxgraph.aws4.resourceIcon;resIcon=mxgraph.aws4.mobile_client;rounded=1;fillColor=none;html=1;noLabel=1;fontColor=none;" parent="1" vertex="1">
          <mxGeometry x="-2280" y="440" width="110" height="110" as="geometry" />
        </mxCell>
        <mxCell id="xtcrE2ZxcK-NYd2guA6A-9" value="" style="rounded=0;whiteSpace=wrap;html=1;fontColor=#000000;strokeWidth=1;fillColor=none;strokeColor=#35485E;" parent="1" vertex="1">
          <mxGeometry x="-2007" y="160" width="506" height="590.5" as="geometry" />
        </mxCell>
        <mxCell id="EWTi3nRZQ3Ram_rcYh2X-6" value="" style="rounded=1;whiteSpace=wrap;html=1;fillColor=none;dashed=1;strokeWidth=2;strokeColor=#232F3E;arcSize=2;" parent="1" vertex="1">
          <mxGeometry x="-1857" y="180" width="340" height="561" as="geometry" />
        </mxCell>
        <mxCell id="EWTi3nRZQ3Ram_rcYh2X-43" value="TCP/IP socket" style="text;html=1;strokeColor=none;fillColor=none;align=center;verticalAlign=middle;whiteSpace=wrap;rounded=0;dashed=1;fontColor=#000000;" parent="1" vertex="1">
          <mxGeometry x="-1000" y="160" width="100" height="20" as="geometry" />
        </mxCell>
        <mxCell id="EWTi3nRZQ3Ram_rcYh2X-47" value="" style="endArrow=classic;html=1;fontColor=#000000;exitX=1;exitY=0.5;exitDx=0;exitDy=0;entryX=0;entryY=0.5;entryDx=0;entryDy=0;rounded=0;" parent="1" target="ZfqHxHFTZi9roqCpO5qu-6" edge="1">
          <mxGeometry width="50" height="50" relative="1" as="geometry">
            <mxPoint x="-1903" y="414" as="sourcePoint" />
            <mxPoint x="-1845" y="414" as="targetPoint" />
            <Array as="points">
              <mxPoint x="-1830" y="414" />
              <mxPoint x="-1830" y="377" />
            </Array>
          </mxGeometry>
        </mxCell>
        <mxCell id="xtcrE2ZxcK-NYd2guA6A-10" value="Amazon EC2" style="outlineConnect=0;fontColor=#232F3E;gradientColor=none;strokeColor=#ffffff;fillColor=#232F3E;dashed=0;verticalLabelPosition=middle;verticalAlign=bottom;align=center;html=1;whiteSpace=wrap;fontSize=10;fontStyle=1;spacing=3;shape=mxgraph.aws4.productIcon;prIcon=mxgraph.aws4.ec2;" parent="1" vertex="1">
          <mxGeometry x="-1977" y="170.00000000000003" width="50" height="78" as="geometry" />
        </mxCell>
        <mxCell id="xtcrE2ZxcK-NYd2guA6A-15" value="" style="aspect=fixed;html=1;points=[];align=center;image;fontSize=12;image=img/lib/mscae/Kubernetes.svg;fontColor=#000000;strokeColor=#232F3E;strokeWidth=1;fillColor=none;" parent="1" vertex="1">
          <mxGeometry x="-1845" y="189" width="50" height="48" as="geometry" />
        </mxCell>
        <mxCell id="xtcrE2ZxcK-NYd2guA6A-16" value="Kubernetes" style="text;html=1;strokeColor=none;fillColor=none;align=center;verticalAlign=middle;whiteSpace=wrap;rounded=0;fontColor=#000000;" parent="1" vertex="1">
          <mxGeometry x="-1839" y="237" width="40" height="20" as="geometry" />
        </mxCell>
        <mxCell id="xtcrE2ZxcK-NYd2guA6A-18" value="" style="endArrow=classic;html=1;fontColor=#000000;" parent="1" edge="1">
          <mxGeometry width="50" height="50" relative="1" as="geometry">
            <mxPoint x="-2167" y="415" as="sourcePoint" />
            <mxPoint x="-2057" y="415" as="targetPoint" />
          </mxGeometry>
        </mxCell>
        <mxCell id="xtcrE2ZxcK-NYd2guA6A-21" value="HTTPS" style="text;html=1;strokeColor=none;fillColor=none;align=center;verticalAlign=middle;whiteSpace=wrap;rounded=0;fontColor=#000000;" parent="1" vertex="1">
          <mxGeometry x="-2166" y="397" width="40" height="20" as="geometry" />
        </mxCell>
        <mxCell id="QuYCjtv5ThX6Y8jcbmzW-52" style="edgeStyle=orthogonalEdgeStyle;rounded=0;orthogonalLoop=1;jettySize=auto;html=1;exitX=1;exitY=0.5;exitDx=0;exitDy=0;entryX=0.5;entryY=0;entryDx=0;entryDy=0;fontSize=12;startArrow=none;startFill=0;endArrow=classic;endFill=1;" parent="1" source="ZfqHxHFTZi9roqCpO5qu-6" target="QuYCjtv5ThX6Y8jcbmzW-12" edge="1">
          <mxGeometry relative="1" as="geometry" />
        </mxCell>
        <mxCell id="QuYCjtv5ThX6Y8jcbmzW-53" style="edgeStyle=orthogonalEdgeStyle;rounded=0;orthogonalLoop=1;jettySize=auto;html=1;exitX=0.5;exitY=0;exitDx=0;exitDy=0;entryX=0;entryY=0.5;entryDx=0;entryDy=0;fontSize=12;startArrow=none;startFill=0;endArrow=classic;endFill=1;" parent="1" source="ZfqHxHFTZi9roqCpO5qu-6" target="EWTi3nRZQ3Ram_rcYh2X-24" edge="1">
          <mxGeometry relative="1" as="geometry" />
        </mxCell>
        <mxCell id="ZfqHxHFTZi9roqCpO5qu-6" value="" style="shape=image;verticalLabelPosition=bottom;labelBackgroundColor=#ffffff;verticalAlign=top;aspect=fixed;imageAspect=0;image=data:image/png,iVBORw0KGgoAAAANSUhEUgAAAHUAAACDCAMAAACEEaSKAAAAAXNSR0IB2cksfwAAAAlwSFlzAAALEwAACxMBAJqcGAAAAORQTFRFAAAAYbp5AKpIAKtNAH8kAD0FW4Buo6WlcL2HAKpFAKU1GqxTMLBcEntIAD8cACsAAK9SAKUqF65UGLBeHVE2AEwsfZuGKLZnAKpLHq1UAKtPGWNDlJmbVLx6AKo9AKc/BKtPOnNbZsCEAK1OAKY6EaxRCk0vALRdC6tQA1kyQbRpKmhLAEYjOrhuAKlCS7dwbceQc5CBAKYxp6eoAKg3I61WWrl1////PrRkeMGLTrhsB2c6AAAAm56gmpucVLZvaqd8FodCAII2AIY+oaGjA41GIpVUAHsICZdLQpxliL+XAKQeQxTUzAAAAEx0Uk5TAP///////////////////////////////////////////////////////////////////////////////////////////////////52E2SAAAAbcSURBVHic7dp9d5pIFAdgw4sVaUStJIhpoDEQrJTUtCmbmG4V1mjc7/999oIKA8zIgGjPntPfyV9BeTL3Mi/a1mp/kpczhuX4+ruTmg2hKb4/b/FS/YRouyN22Q/nrV5Pki9OZF52lL6qBqos92RpcHUC8+O11tfZnQpui/90bPNmeCsaapCdKps9vnXc9t41LVFVkyoM15RGx2vvZ00QdTWrBmWWxsdp70dG2xY3qwZlPkZ7oaFRcTFqUGZerrq9bY2Ji4tVwbX5Stv7xRFES1Vz1LDMg6oWyXvFsQw1HYwKrsm3Kmnv16GjpIpLVsMy25OD0bajGOni7lOhzHbrwMX5UmMsrElWgzLDY1Xe/KgxbLahuSq4sl169g4F1sA0lEKF4cotvkx77zSFVNx8dVvmoovk5a2i7zNz1dCVxkXMr7eMbpGLS6duXPpFcqhZeSaVGq4aPN0sunugMClVYGHv/ZZrfnlQ9jy4hVW6Ml9ruNXvEDXcFKR9s6j9kNlaKlADV7JJs+hLRxHztTJqeLTCzqKv3+HESY8WVMMyZ9s7bPaJS24Valjm1Cy6fDAKFDeMUlSFMvekAYLedB4LmiXGGrpolZ1+YbTMWMMqx2qnhFpqrLIZz9ybZvdEY5XN+DBXSi05VqKqQ/aLwQuqVeHoy7KqsWfyGgbLWkY5VbYHONVQHAbiCCRXtxh4heAQ+2r2ej2TzI6yqq4ywx8u5OzRYQgs023ACz4zd1g12MchJsE17TFGVf5yt3lqCzjWEJ63L2jjVNNujev1+rhl41lcXw0nQiFDJcsaznN0fWrj1Hp4rU6v6rrgohGyrNiML39qZe7c4yfbixO+R6kazGNCdR02tclbSje+OpHSNzbtUXR1hB0tThXeJ1VXM9JqP754kVF70mTPVWq10eyTx4pRX35GV9+9lFbdz5rInl51uwzKnkp1BcZgT68m5s/pVFeLP4CcUG3cir9BdZ818Teo7gdn+yAfrmb3HKLqKsKGxapmlLQaXUDczP6aUJ9dNMzmQcao8EkxSu/lb1SNL8Ruzlh/sQlWUy2sCpv4dBAlXvzdb/w4+vUUtnm6vp410b3WvQk3gqzKT1yaXPCySaP+UG5/oO+7d7oYlRINWSpVeOw8oe/rCt2Miuynednst/mq1f+eeB/DGGm1VadW6y1KVdeZxBsFpZtS+Stq9Yqnq7AFBU2yTnqs1G2F806LVoWTVGLdOBNYVOWL9HVA21f4lXh7j771XkPOczNuYPI/Xbq8a8n0KhxFb9A3t4eoOvem9gUVemVTzteNqopa4u1J1fendn0SB32kJ+jvbZtubdqpOusQ/v5Q9ecjXpIkfvPzEj/T/7zw0a8lSaZcEXcqPMhDDBmp/vx80Nsluecgod1fI5W4AW5ViDeqalePVdXQ7jEookJ7Azezv2JiT2lV3dAaOarvD6jGKsvUKnw+xz1RSdU/n1ZbYRU+2im5KriDClVWbaui7+er/pyvTGXburHw59wrhbp0D1WZUGWHurUK78i95anzCtRgrOywrax29+RmRcb6rZT6C8YKxV0t4ntyjVx1HV39m1a1WORJbbN6e1vcKFxC9TNBu/CJp/xeQu068bGwaVhgeombeugTtV6mhxqwu8Guqb+Dgf1F2R0LHcNaLbz0TT3uaR8KK/J8exm23hGlCovQbXj2frrWV6u0uRmMtxnNW6apm+v+cha23A8Wq6xL+M7UYDrX1x1NXOHuGd6WWy7hx8Oi4d+1hBdsrp5P070lflMrGt1+qqHJ24YhXvYTl9MuSWXbBr645ZJqL15lh9aKVNySgb0ICe6bWrWdni1VxEOHm/nUHBR3kX+TEpnu2pv5hoBVj2WG7gjfV0upuKHJbJ7mtGod1dy4CbX2b986YnGjeOcjE/kfI9evJzBDd4z86yBhUa0+c29RQ1n/BC5sWShaq828o7uwb3i/aqm8ed6+Nf1gc+55r2kzyIojbl+Hox73usahtVpjcSQXTH+GN8P2+lz1ZZ7PMQ1NtZerehbBQN/2m5D1K/l0Uspckhqabu+yqjLDZ5B9DU0GZm8VLjSUozaDvFVQZihufkOTgfYeNlwo7oKqock0vEPc+bJYcePMSpcZilvSDPJWarhQXOySS521X9gFkyvR0GRmy2KLFXzOmR1qBikyi2CgRWcLMSvKMgezpSoT8kS1J8BS1KgQrdHMIpgtOftZmbwu952s4EP6qnoziL/nRMd5B88WUhoc9lPm3PfKLn90gVmUHS+cxI5pBkmf6OCYW+VsIWXtebELxfUqni2kwIHdD5eNoKFHmC2kvMJ4oZ+E4/zxsvKDAZ/WDHO0Cfon/9f8B3+2vo723zciAAAAAElFTkSuQmCC;" parent="1" vertex="1">
          <mxGeometry x="-1816" y="329.5" width="84.4" height="94.5" as="geometry" />
        </mxCell>
        <mxCell id="ZfqHxHFTZi9roqCpO5qu-12" value="" style="group" parent="1" vertex="1" connectable="0">
          <mxGeometry x="-1983" y="355" width="120" height="108" as="geometry" />
        </mxCell>
        <mxCell id="ZfqHxHFTZi9roqCpO5qu-13" value="HTTP/HTTPS (Camada 7)" style="text;html=1;strokeColor=none;fillColor=none;align=center;verticalAlign=middle;whiteSpace=wrap;rounded=0;fontColor=#000000;" parent="ZfqHxHFTZi9roqCpO5qu-12" vertex="1">
          <mxGeometry width="110" height="20" as="geometry" />
        </mxCell>
        <mxCell id="ZfqHxHFTZi9roqCpO5qu-14" value="Application Load Balancer" style="outlineConnect=0;fontColor=#232F3E;gradientColor=none;strokeColor=#ffffff;fillColor=#232F3E;dashed=0;verticalLabelPosition=middle;verticalAlign=bottom;align=center;html=1;whiteSpace=wrap;fontSize=10;fontStyle=1;spacing=3;shape=mxgraph.aws4.productIcon;prIcon=mxgraph.aws4.application_load_balancer;spacingTop=0;spacingBottom=-14;" parent="ZfqHxHFTZi9roqCpO5qu-12" vertex="1">
          <mxGeometry x="30" y="30" width="50" height="78" as="geometry" />
        </mxCell>
        <mxCell id="ZfqHxHFTZi9roqCpO5qu-16" value="" style="endArrow=classic;html=1;fontFamily=Tahoma;fontSize=26;" parent="ZfqHxHFTZi9roqCpO5qu-12" edge="1">
          <mxGeometry width="50" height="50" relative="1" as="geometry">
            <mxPoint x="-31" y="59" as="sourcePoint" />
            <mxPoint x="30" y="59" as="targetPoint" />
          </mxGeometry>
        </mxCell>
        <mxCell id="QuYCjtv5ThX6Y8jcbmzW-5" value="HTTP" style="text;html=1;strokeColor=none;fillColor=none;align=center;verticalAlign=middle;whiteSpace=wrap;rounded=0;fontColor=#000000;" parent="ZfqHxHFTZi9roqCpO5qu-12" vertex="1">
          <mxGeometry x="80" y="44" width="40" height="20" as="geometry" />
        </mxCell>
        <mxCell id="ZfqHxHFTZi9roqCpO5qu-18" value="Ingress Controller" style="text;html=1;strokeColor=none;fillColor=none;align=center;verticalAlign=middle;whiteSpace=wrap;rounded=0;labelBackgroundColor=none;fontFamily=Tahoma;fontSize=12;" parent="1" vertex="1">
          <mxGeometry x="-1794" y="422" width="40" height="20" as="geometry" />
        </mxCell>
        <mxCell id="ZfqHxHFTZi9roqCpO5qu-19" value="" style="rounded=0;whiteSpace=wrap;html=1;labelBackgroundColor=none;fontFamily=Tahoma;fontSize=12;dashed=1;strokeColor=#b85450;fillColor=none;strokeWidth=3;" parent="1" vertex="1">
          <mxGeometry x="-1297" y="80" width="210" height="712" as="geometry" />
        </mxCell>
        <mxCell id="ZfqHxHFTZi9roqCpO5qu-20" value="&lt;font style=&quot;font-size: 16px&quot;&gt;Cloud Services&lt;/font&gt;" style="text;html=1;strokeColor=none;fillColor=none;align=center;verticalAlign=middle;whiteSpace=wrap;rounded=0;dashed=1;labelBackgroundColor=none;fontFamily=Tahoma;fontSize=12;" parent="1" vertex="1">
          <mxGeometry x="-1257" y="100" width="120" height="20" as="geometry" />
        </mxCell>
        <mxCell id="ZfqHxHFTZi9roqCpO5qu-23" value="" style="group" parent="1" vertex="1" connectable="0">
          <mxGeometry x="-1458" y="450" width="100" height="102" as="geometry" />
        </mxCell>
        <mxCell id="EWTi3nRZQ3Ram_rcYh2X-12" value="&lt;font color=&quot;#248814&quot;&gt;&lt;b&gt;MongoDB Atlas VPC&lt;/b&gt;&lt;/font&gt;" style="points=[[0,0],[0.25,0],[0.5,0],[0.75,0],[1,0],[1,0.25],[1,0.5],[1,0.75],[1,1],[0.75,1],[0.5,1],[0.25,1],[0,1],[0,0.75],[0,0.5],[0,0.25]];outlineConnect=0;gradientColor=none;html=1;whiteSpace=wrap;fontSize=12;fontStyle=0;shape=mxgraph.aws4.group;grIcon=mxgraph.aws4.group_vpc;strokeColor=#248814;fillColor=none;verticalAlign=top;align=left;spacingLeft=30;fontColor=#AAB7B8;dashed=0;" parent="ZfqHxHFTZi9roqCpO5qu-23" vertex="1">
          <mxGeometry width="100" height="102" as="geometry" />
        </mxCell>
        <mxCell id="EWTi3nRZQ3Ram_rcYh2X-13" value="" style="dashed=0;outlineConnect=0;html=1;align=center;labelPosition=center;verticalLabelPosition=bottom;verticalAlign=top;shape=mxgraph.webicons.mongodb;gradientColor=#DFDEDE" parent="ZfqHxHFTZi9roqCpO5qu-23" vertex="1">
          <mxGeometry x="31.645714285714348" y="42" width="36.71428571428571" height="41.48" as="geometry" />
        </mxCell>
        <mxCell id="ZfqHxHFTZi9roqCpO5qu-25" value="" style="html=1;verticalLabelPosition=bottom;align=center;labelBackgroundColor=#ffffff;verticalAlign=top;strokeWidth=2;strokeColor=#6c8ebf;shadow=0;dashed=0;shape=mxgraph.ios7.icons.cloud;fontFamily=Tahoma;fontSize=12;fillColor=#dae8fc;" parent="1" vertex="1">
          <mxGeometry x="-1249.5" y="370.75" width="115" height="71.75" as="geometry" />
        </mxCell>
        <mxCell id="ZfqHxHFTZi9roqCpO5qu-26" value="HTTPS / OIDC" style="text;html=1;strokeColor=none;fillColor=none;align=center;verticalAlign=middle;whiteSpace=wrap;rounded=0;fontColor=#000000;" parent="1" vertex="1">
          <mxGeometry x="-1455" y="251" width="110" height="20" as="geometry" />
        </mxCell>
        <mxCell id="0Om6wHVo42cu389rgM5V-1" value="" style="pointerEvents=1;shadow=0;dashed=0;html=1;strokeColor=none;fillColor=#505050;labelPosition=center;verticalLabelPosition=bottom;outlineConnect=0;verticalAlign=top;align=center;shape=mxgraph.office.clouds.office_365;" parent="1" vertex="1">
          <mxGeometry x="-1242.5" y="213.5" width="101" height="61" as="geometry" />
        </mxCell>
        <mxCell id="0Om6wHVo42cu389rgM5V-2" value="Office 365" style="text;html=1;strokeColor=none;fillColor=none;align=center;verticalAlign=middle;whiteSpace=wrap;rounded=0;" parent="1" vertex="1">
          <mxGeometry x="-1222" y="277" width="60" height="20" as="geometry" />
        </mxCell>
        <mxCell id="0Om6wHVo42cu389rgM5V-3" value="Partner" style="text;html=1;strokeColor=none;fillColor=none;align=center;verticalAlign=middle;whiteSpace=wrap;rounded=0;" parent="1" vertex="1">
          <mxGeometry x="-1222" y="450.75" width="60" height="20" as="geometry" />
        </mxCell>
        <mxCell id="0Om6wHVo42cu389rgM5V-4" value="" style="group" parent="1" vertex="1" connectable="0">
          <mxGeometry x="-1747" y="206" width="220" height="115" as="geometry" />
        </mxCell>
        <mxCell id="EWTi3nRZQ3Ram_rcYh2X-24" value="" style="rounded=1;whiteSpace=wrap;html=1;dashed=1;fontColor=none;strokeColor=#232F3E;strokeWidth=1;fillColor=none;" parent="0Om6wHVo42cu389rgM5V-4" vertex="1">
          <mxGeometry width="220" height="115" as="geometry" />
        </mxCell>
        <mxCell id="EWTi3nRZQ3Ram_rcYh2X-25" value="" style="group" parent="0Om6wHVo42cu389rgM5V-4" vertex="1" connectable="0">
          <mxGeometry x="30" y="45" width="179" height="60" as="geometry" />
        </mxCell>
        <mxCell id="EWTi3nRZQ3Ram_rcYh2X-26" value="" style="rounded=1;whiteSpace=wrap;html=1;gradientColor=#b3b3b3;fillColor=#f5f5f5;strokeColor=#666666;" parent="EWTi3nRZQ3Ram_rcYh2X-25" vertex="1">
          <mxGeometry width="160" height="60" as="geometry" />
        </mxCell>
        <mxCell id="EWTi3nRZQ3Ram_rcYh2X-27" value="" style="shape=image;verticalLabelPosition=bottom;verticalAlign=top;imageAspect=0;aspect=fixed;image=data:image/svg+xml,PHN2ZyB4bWxucz0iaHR0cDovL3d3dy53My5vcmcvMjAwMC9zdmciIGlkPSJMYXllcl8xIiBkYXRhLW5hbWU9IkxheWVyIDEiIHZpZXdCb3g9IjAgMCA2NCA2NCI+PGRlZnM+PHN0eWxlPi5jbHMtMXtmaWxsOiM1YzJkOTE7fS5jbHMtMiwuY2xzLTN7ZmlsbDojZmZmO30uY2xzLTJ7b3BhY2l0eTowLjE7fS5jbHMtNHtmaWxsOiNmMmYyZjI7fTwvc3R5bGU+PC9kZWZzPjx0aXRsZT5sb2dvX05FVGNvcmU8L3RpdGxlPjxjaXJjbGUgY2xhc3M9ImNscy0xIiBjeD0iMzIiIGN5PSIzMiIgcj0iMzIiLz48cGF0aCBjbGFzcz0iY2xzLTIiIGQ9Ik05LjgyLDlBMzIsMzIsMCwxLDAsNTUsNTQuMThaIi8+PHBhdGggY2xhc3M9ImNscy0zIiBkPSJNNy40LDM3LjI1YTEuMzUsMS4zNSwwLDAsMS0xLS40MiwxLjM4LDEuMzgsMCwwLDEtLjQxLTEsMS40LDEuNCwwLDAsMSwuNDEtMSwxLjM0LDEuMzQsMCwwLDEsMS0uNDMsMS4zNywxLjM3LDAsMCwxLDEsLjQzLDEuMzksMS4zOSwwLDAsMSwuNDIsMSwxLjM3LDEuMzcsMCwwLDEtLjQyLDFBMS4zOCwxLjM4LDAsMCwxLDcuNCwzNy4yNVoiLz48cGF0aCBjbGFzcz0iY2xzLTMiIGQ9Ik0yNy4yNywzN0gyNC42NUwxNS4yOCwyMi40NmE2LDYsMCwwLDEtLjU4LTEuMTRoLS4wOGExOC43MiwxOC43MiwwLDAsMSwuMSwyLjVWMzdIMTIuNTlWMTguNzdoMi43N2w5LjEyLDE0LjI4cS41Ny44OS43NCwxLjIyaC4wNWExOS4yOCwxOS4yOCwwLDAsMS0uMTMtMi42OFYxOC43N2gyLjEzWiIvPjxwYXRoIGNsYXNzPSJjbHMtMyIgZD0iTTQxLjY5LDM3SDMyVjE4Ljc3aDkuMjRWMjAuN0gzNC4xOHY2LjA2aDYuNTh2MS45MkgzNC4xOFYzNWg3LjUyWiIvPjxwYXRoIGNsYXNzPSJjbHMtMyIgZD0iTTU2LDIwLjdINTAuN1YzN0g0OC41N1YyMC43SDQzLjMzVjE4Ljc3SDU2WiIvPjxwYXRoIGNsYXNzPSJjbHMtNCIgZD0iTTI2LjEyLDQ5LjRhNC45Myw0LjkzLDAsMCwxLTIuMzIuNDksMy43NCwzLjc0LDAsMCwxLTIuODctMS4xNSw0LjI2LDQuMjYsMCwwLDEtMS4wOC0zLDQuNDYsNC40NiwwLDAsMSwxLjIxLTMuMjYsNC4xMiw0LjEyLDAsMCwxLDMuMDgtMS4yNCw0LjkzLDQuOTMsMCwwLDEsMiwuMzV2MWE0LDQsMCwwLDAtMi0uNSwzLjA2LDMuMDYsMCwwLDAtMi4zNSwxLDMuNjQsMy42NCwwLDAsMC0uOSwyLjU4LDMuNDcsMy40NywwLDAsMCwuODQsMi40NSwyLjg2LDIuODYsMCwwLDAsMi4yMS45MSw0LjE0LDQuMTQsMCwwLDAsMi4xOS0uNTZaIi8+PHBhdGggY2xhc3M9ImNscy00IiBkPSJNMzAuMjEsNDkuODlBMi43OCwyLjc4LDAsMCwxLDI4LjA4LDQ5YTMuMTEsMy4xMSwwLDAsMS0uNzktMi4yMywzLjI0LDMuMjQsMCwwLDEsLjgzLTIuMzYsMywzLDAsMCwxLDIuMjMtLjg1LDIuNjksMi42OSwwLDAsMSwyLjA5LjgzLDMuMjgsMy4yOCwwLDAsMSwuNzUsMi4yOSwzLjIyLDMuMjIsMCwwLDEtLjgxLDIuM0EyLjg0LDIuODQsMCwwLDEsMzAuMjEsNDkuODlabS4wNy01LjQ3YTEuODMsMS44MywwLDAsMC0xLjQ2LjYzLDIuNTksMi41OSwwLDAsMC0uNTQsMS43NCwyLjQ1LDIuNDUsMCwwLDAsLjU0LDEuNjgsMS44NSwxLjg1LDAsMCwwLDEuNDYuNjIsMS43NiwxLjc2LDAsMCwwLDEuNDMtLjYsMi42MiwyLjYyLDAsMCwwLC41LTEuNzIsMi42NiwyLjY2LDAsMCwwLS41LTEuNzNBMS43NSwxLjc1LDAsMCwwLDMwLjI4LDQ0LjQyWiIvPjxwYXRoIGNsYXNzPSJjbHMtNCIgZD0iTTM3Ljg2LDQ0LjcyYTEuMTgsMS4xOCwwLDAsMC0uNzMtLjE5LDEuMjMsMS4yMywwLDAsMC0xLC41OCwyLjY4LDIuNjgsMCwwLDAtLjQxLDEuNTh2My4wNmgtMXYtNmgxVjQ1aDBhMi4xLDIuMSwwLDAsMSwuNjMtMSwxLjQzLDEuNDMsMCwwLDEsLjk0LS4zNSwxLjU3LDEuNTcsMCwwLDEsLjU3LjA4WiIvPjxwYXRoIGNsYXNzPSJjbHMtNCIgZD0iTTQzLjcyLDQ3SDM5LjQ5QTIuMjQsMi4yNCwwLDAsMCw0MCw0OC41NGExLjg2LDEuODYsMCwwLDAsMS40Mi41NCwzLDMsMCwwLDAsMS44Ni0uNjd2LjlhMy40OCwzLjQ4LDAsMCwxLTIuMDkuNTcsMi41NCwyLjU0LDAsMCwxLTItLjgyLDMuMzUsMy4zNSwwLDAsMS0uNzMtMi4zLDMuMjgsMy4yOCwwLDAsMSwuNzktMi4yOCwyLjU1LDIuNTUsMCwwLDEsMi0uODgsMi4yNiwyLjI2LDAsMCwxLDEuODIuNzYsMy4xOCwzLjE4LDAsMCwxLC42NCwyLjEyWm0tMS0uODFhMiwyLDAsMCwwLS40LTEuMjksMS4zNywxLjM3LDAsMCwwLTEuMS0uNDYsMS41NSwxLjU1LDAsMCwwLTEuMTUuNDksMi4yMSwyLjIxLDAsMCwwLS41OSwxLjI3WiIvPjwvc3ZnPg==" parent="EWTi3nRZQ3Ram_rcYh2X-25" vertex="1">
          <mxGeometry x="10" y="8" width="30" height="30" as="geometry" />
        </mxCell>
        <mxCell id="EWTi3nRZQ3Ram_rcYh2X-40" value="Identity Server" style="text;html=1;strokeColor=none;fillColor=none;align=center;verticalAlign=middle;whiteSpace=wrap;rounded=0;dashed=1;fontStyle=1" parent="EWTi3nRZQ3Ram_rcYh2X-25" vertex="1">
          <mxGeometry x="54" y="20" width="106" height="20" as="geometry" />
        </mxCell>
        <mxCell id="EWTi3nRZQ3Ram_rcYh2X-31" value="Scalable Pod" style="text;html=1;strokeColor=none;fillColor=none;align=center;verticalAlign=middle;whiteSpace=wrap;rounded=0;dashed=1;fontColor=none;" parent="0Om6wHVo42cu389rgM5V-4" vertex="1">
          <mxGeometry x="60" y="6" width="110" height="20" as="geometry" />
        </mxCell>
        <mxCell id="EWTi3nRZQ3Ram_rcYh2X-41" value="&lt;b&gt;&lt;font face=&quot;Verdana&quot;&gt;Api&lt;/font&gt;&lt;/b&gt;" style="text;html=1;align=center;verticalAlign=middle;resizable=0;points=[];autosize=1;fontSize=11;" parent="0Om6wHVo42cu389rgM5V-4" vertex="1">
          <mxGeometry x="91" y="24" width="40" height="20" as="geometry" />
        </mxCell>
        <mxCell id="QuYCjtv5ThX6Y8jcbmzW-1" value="" style="outlineConnect=0;dashed=0;verticalLabelPosition=bottom;verticalAlign=top;align=center;html=1;shape=mxgraph.aws3.api_gateway;fillColor=#D9A741;gradientColor=none;" parent="1" vertex="1">
          <mxGeometry x="-2055" y="384" width="38.5" height="50" as="geometry" />
        </mxCell>
        <mxCell id="QuYCjtv5ThX6Y8jcbmzW-4" value="HTTPS" style="text;html=1;strokeColor=none;fillColor=none;align=center;verticalAlign=middle;whiteSpace=wrap;rounded=0;fontColor=#000000;" parent="1" vertex="1">
          <mxGeometry x="-2004" y="397" width="40" height="20" as="geometry" />
        </mxCell>
        <mxCell id="QuYCjtv5ThX6Y8jcbmzW-8" value="" style="endArrow=classic;html=1;dashed=1;" parent="1" edge="1">
          <mxGeometry width="50" height="50" relative="1" as="geometry">
            <mxPoint x="-1527" y="246.5" as="sourcePoint" />
            <mxPoint x="-1243" y="246" as="targetPoint" />
          </mxGeometry>
        </mxCell>
        <mxCell id="QuYCjtv5ThX6Y8jcbmzW-10" value="" style="endArrow=none;html=1;dashed=1;startArrow=classic;startFill=1;endFill=0;" parent="1" edge="1">
          <mxGeometry width="50" height="50" relative="1" as="geometry">
            <mxPoint x="-1521" y="270.5" as="sourcePoint" />
            <mxPoint x="-1241" y="270" as="targetPoint" />
          </mxGeometry>
        </mxCell>
        <mxCell id="QuYCjtv5ThX6Y8jcbmzW-21" style="edgeStyle=orthogonalEdgeStyle;rounded=0;orthogonalLoop=1;jettySize=auto;html=1;exitX=0.75;exitY=1;exitDx=0;exitDy=0;entryX=-0.006;entryY=0.671;entryDx=0;entryDy=0;entryPerimeter=0;startArrow=none;startFill=0;endArrow=classic;endFill=1;" parent="1" source="EWTi3nRZQ3Ram_rcYh2X-24" target="ZfqHxHFTZi9roqCpO5qu-25" edge="1">
          <mxGeometry relative="1" as="geometry" />
        </mxCell>
        <mxCell id="QuYCjtv5ThX6Y8jcbmzW-22" style="edgeStyle=orthogonalEdgeStyle;rounded=0;orthogonalLoop=1;jettySize=auto;html=1;exitX=0.5;exitY=1;exitDx=0;exitDy=0;entryX=0;entryY=0.5;entryDx=0;entryDy=0;startArrow=none;startFill=0;endArrow=classic;endFill=1;" parent="1" source="EWTi3nRZQ3Ram_rcYh2X-24" target="EWTi3nRZQ3Ram_rcYh2X-12" edge="1">
          <mxGeometry relative="1" as="geometry">
            <Array as="points">
              <mxPoint x="-1637" y="440" />
              <mxPoint x="-1480" y="440" />
              <mxPoint x="-1480" y="501" />
            </Array>
          </mxGeometry>
        </mxCell>
        <mxCell id="QuYCjtv5ThX6Y8jcbmzW-23" value="" style="aspect=fixed;html=1;points=[];align=center;image;fontSize=12;image=img/lib/mscae/Service_Bus.svg;rotation=0;" parent="1" vertex="1">
          <mxGeometry x="-823" y="442" width="50" height="50" as="geometry" />
        </mxCell>
        <mxCell id="QuYCjtv5ThX6Y8jcbmzW-26" value="" style="shape=image;verticalLabelPosition=bottom;labelBackgroundColor=#ffffff;verticalAlign=top;aspect=fixed;imageAspect=0;image=data:image/png,iVBORw0KGgoAAAANSUhEUgAAAyAAAAJYCAYAAACadoJwAAAABGdBTUEAALGPC/xhBQAAACBjSFJNAAB6JgAAgIQAAPoAAACA6AAAdTAAAOpgAAA6mAAAF3CculE8AAAABmJLR0QAAAAAAAD5Q7t/AAAACXBIWXMAAA8AAAAPAAEXcSFwAAAAB3RJTUUH4gMdByQV6/H2cwAAHoxJREFUeNrt3Xmw7ndB3/H3kxuyEAiETQJIVKoSRRatoAhapKVuSGXq0tqqtOaJ1pbS1SIyTle1rW0dZ3Q4SN1KaautnVq3sQtdsNZWW7UUcNcqCFhkJwlJfv3juQUDuTc3957z/T6/57xeMxluNvKZnPzu/b3Pb3k2wd1Yvqp6b9dUH1o9ufqc6iOrD6mura6qzszeuWdur26p3la9qXpd9QPVT1W/0ZW9a/MtsyeyT5avrO7o6nbH2VOqz6we212Ps8tn79wzd7Q7zt5evbn6+epHqp+ofq3Le+fmW2dPBOB8NrMHsF+WbZdXT6g+u/qU6qOrh1VXz962Uu9ud5L02uo/VT/Spp/ZvKTbZw9jnmXbmerx7YLjadWN7aLDcXZxbql+u130v6pdkPz3zVHvnT0MgA8mQKhq2XZFuxOhz6+eXT1y9qYD9frqX1bfW/345qjbZg9inLPH2VOqL6yeUz1q9qYD9abqX1f/tPpPm6PeM3sQAO8nQE65Zdtl7b77elP1JdV1szedEm+pvqf6tuoXNkfdOXsQJ2f58jZd1ke1O86eVz1o9qZT4h3VP6m+tU0/u3mJ4wxgHwiQU2zZdnX1ZdUL292DzlhL9avV11f/yHdpD9Oy7arqS6u/XH3E7D2n1Ourv1N9++aod84eA3DaCZBTatn2qOqvV19Q3Xf2nlPu3dXLqxdvjnrj7DEcn2Xbw9oF5hdU95u955S7td3tj1+7OeoXZ48BOM0EyCm0bHtC9U3VM6rLZu+h2r3Z58eqv7I56mdmj+HSLdseV31D9Rl5Y9w+eWX1ws1RPzF7CMBpJUBOmWXbJ1QvrZ40ewt3639UX7Y56mdnD+HiLdueVH1r9Umzt3C3/ld1c7f245vvmj0F4PTx3e9T5OyVD/Gx355UvWTZduPsIVycZdvvqb458bHPHle9rCt7wuwhAKeRADkllm2PrP5u4mMNPqn65mXbDbOHcO8s2z6k3ZWPp8/ewj16bPWty7aPnj0E4LQRIKfAclNXV3+teubsLVywP1B9zbLtytlDuDDLtvu2O84+ffYWLthTqxct2x44ewjAaSJADtxyU5s2/fF2H3zmmZ91+aLq85ebZ8/gAn1u9cV54Hxtvqj68uVLZs8AOD0EyKHb9Nh2n/Nxzewp3GvXVi9u6TGzh3B+Z5/Z+bocZ2t0n+oru6qPnT0E4LQQIAdsuakz1Z+oPmz2Fi7aR1V/etl2n9lDuHvLTW3afaDnY2dv4aJ9RPVCtzwCjCFADtmmp1fPmz2DS/bHqt87ewTnsOlp7b5GrNtnVU+ePQLgNBAgB2rZdln13OrBs7dwyR5SPWf2CD7Y2ePsi6pHzN7CJbuu+oqzLxMA4AQJkMP1xOrzZo/g2Dx32brFZw89svr9s0dwbD6j3WeEAHCCBMjhelb1qNkjODYfWf3B2SP4IJ/V7vkBDsODqk+bPQLg0AmQA7Rsu7p62uwdHLunexh9f5w9zj6vunz2Fo7Vpy03uQ0L4CQJkMP0qLyR5xB9XHX97BG8z/U5zg7Rk9v0+NkjAA6ZADlMj68+ZPYIjt0N1SfPHsH7fET1sNkjOHYPLQECcJIEyGH67Op+s0dw7K5s93IB9sON1dWzR3AiXNkCOEEC5DDdOHsAJ+bRZ1/9ykRnn8V5yuwdnJhHL1vP9gCcFCcyh+nhswdwYh5WXTF7BF2dt18dsoeWT0UHOCkC5DBdO3sAJ+banBjtg6uq+88ewYm5f44zgBMjQA7TVbMHcGKuzGtf98HlOUE9ZI4zgBMkQA7TmdkDODGX5bjdB5flODtkZ3KcAZwYP8ECwAdaZg8AOFwCBAAAGEaAwPr43iwAsFoCBNZFfAAAqyZAAACAYQQIAAAwjAABAACGESCwLp4BAQBWTYDA+ogQAGC1BAgAADCMAAEAAIYRILAubr8CAFZNgAAAAMMIEAAAYBgBAuuy5DYsAGDFBAgAADCMAAEAAIYRIAAAwDACBNbF8x8AwKoJEFgfEQIArJYAAQAAhhEgAADAMAIE1sXtVwDAqgkQAABgGAECAAAMI0BgXZbchgUArJgAAQAAhhEgAADAMAIEAAAYRoDAunj+AwBYNQEC6yNCAIDVEiAAAMAwAgQAABhGgMC6uP0KAFg1AQIAAAwjQAAAgGEECKzLktuwAIAVEyAAAMAwAgQAABhGgAAAAMMIEFgXz38AAKsmQAAAgGEECKyPqyAAwGoJEAAAYBgBAuvi6gcAsGoCBAAAGEaAAAAAwwgQWJclt2EBACsmQAAAgGEECAAAMIwAAQAAhhEgsC6e/wAAVk2AAAAAwwgQWB9XQQCA1RIgsC7iAwBYNQECAAAMI0AAAIBhBAgAADCMAIF1WfIcCACwYgIEAAAYRoAAAADDCBAAAGAYAQLr4vkPAGDVBAgAADCMAIH1cRUEAFgtAQIAAAwjQGBdXP0AAFZNgAAAAMMIEAAAYBgBAuviFiwAYNUECAAAMIwAAQAAhhEgsC5LbsMCAFZMgAAAAMMIEAAAYBgBAuvi9isAYNUECAAAMIwAAQAAhhEgsC5uwQIAVk2AAAAAwwgQAABgGAEC6+IWLABg1QQIAAAwjACB9XEVBABYLQEC6yI+AIBVEyAAAMAwAgTWxRUQAGDVBAgAADCMAAEAAIYRILAubsECAFZNgAAAAMMIEAAAYBgBAuviFiwAYNUECKyNBAEAVkyAwNpsZg8AALh4AgTWZck1EABgxQQIAAAwjAABAACGESCwLm6/AgBWTYAAAADDCBAAAGAYAQLrsngNLwCwZgIE1sZTIADAigkQAABgGAEC6+L6BwCwagIEAAAYRoDA+rgKAgCslgCBdREfAMCqCRAAAGAYAQLr4goIALBqAgQAABhGgAAAAMMIEFgXt2ABAKsmQAAAgGEECKyNayAAwIoJEFiXpc3sCQAAF0+AAAAAwwgQWB83YQEAqyVAYF3EBwCwagIEAAAYRoAAAADDCBBYF7dgAQCrJkBgbbyGFwBYMQECa+MaCACwYgIE1kV+AACrJkAAAIBhBAisjWsgAMCKCRBYl8VD6ADAmgkQWBtXQACAFRMgsDYbCQIArJcAgXURHwDAqgkQWBsJAgCsmACBtfEQOgCwYgIE1mVxBQQAWDMBAmvjCggAsGICBNbF9Q8AYNUECAAAMIwAAQAAhhEgsC5uwQIAVk2AwNp4CB0AWDEBAmvjRbwAwIoJEFgX8QEArJoAAQAAhhEgAADAMAIE1sUtWADAqgkQAABgGAECAAAMI0BgXdyCBQCsmgABAACGESAAAMAwAgTWxS1YAMCqCRAAAGAYAQJrs7gKAgCslwCBdVkctQDAmjmVgbVx/QMAWDEBAgAADCNAYF08AQIArJoAAQAAhhEgsDaOWgBgxZzKwLos3TF7AgDAxRMgsDZnZg8AALh4AgTWxUPoAMCqCRBYm83sAQAAF0+AwNpsXAMBANZLgMC6eAgdAFg1AQJrc8XsAQAAF0+AwNq8c/YAAICLJ0BgXZbuO3sCAMDFEyCwNv939gAAgIsnQGBlNv9s9gIAgIsnQGBdvIIXAFg1AQIAAAwjQAAAgGEECKyLW7AAgFUTIAAAwDACBAAAGEaAwLq4BQsAWDUBAgAADCNAAACAYQQIrItbsACAVRMgAADAMAIE1sUVEABg1QQIAAAwjAABAACGESCwLm7BAgBWTYAAAADDCBAAAGAYAQLr4hYsAGDVBAgAADCMAAEAAIYRILAubsECAFZNgAAAAMMIEAAAYBgBAuviFiwAYNUECMDF2cweAABrJEBgXS6fPYBq93U4M3sEJ2gjMAFOigCBdblmudmJ0R64prpq9ghOzJn8+ghwYvwEC+vy0JaumD2CHtIuQjhM11TXzR4BcKgECKzLI6prZ4+gD6/uO3sEJ+ZB1Y2zRwAcKgEC6/LI6kNnj6An5iH0Q3Zl9YTZIwAOlQCBdbmuevLsEafZsu366lNm7+DEPX7Zut0R4CQIEFiXTfXFy7YHzx5yin1muysgHLYnVI+ePQLgEAkQWJ+Pz1WQKZZt962ek9chnwaPrJ41ewTAIRIgsD73rZ63bD2MPsFzqmfMHsEQZ6qvWLaeuQI4bgIE1ukPVX949ojTZNn2iOovVPefvYVhHlf9keVPzp4BcFgECKzTfao/s2z76NlDToNl29XVV1dPmr2FoTbVCzrTp88eAnBIBAis1xOrb1i2PWz2kEN29k1IN1Vfnp8zT6Prqxct2x4zewjAofCLKazb51Zfv2x70Owhh2i5qTPVl1Z/Ix88eJp9evVNZ2/DA+ASCRBYt8s6e4LsSsjxWm7u6jY9v/rGPPfBLvaPlm03zB4CsHYCBNbvTHVz9Ypl21NnjzkEy7bHtPTt7a58XDd7D3thU31W9X3Lts9ctn79BLhYm9kDOH7LtluqK2fvYIpfql5SfdfmqDfNHrM2Z68ifUH1J9o9Y+PnSO7Ob1WvqI7a9LrNS1pmDwJYE7+4HiABcurdXv149fLqldWvbo66bfaofbR8RZvu7P7Vh1dPrz6/emo+aJB7tlQ/X31v9WPVa9v0ls1Lun32MIB9J0AOkADhrDuqN7SLkB+sfqF6c/Xu6r0f8NduzvHjy973e0ub932fd9PmPH/PXf/c5uyPl/P+def743f3+x/8z7nrLaWXfcD/3+/+/cvbPVD+kOoJ1TOrx1YPzm2pXJx3VL/WLvz/S/XG6l3tjkE4LZZ2/83fUr29eltL7+i9vXfznbOnsW8EyAESINyN29udJL317P/eWr8rJy7sRP58J/UXEgl398851587d9Dc/Y/vzd9/prqi3THiSgfH7c52x9vtZ38Mp8md7b7B9e7qt6tfr15V/Uj1y5uj3jV7IPtBgBwgAQIA7Ik728XIq6t/U/3z7ujnNy/z7NRpJkAOkAABAPbQ/3926nuqf7w56ldmD2IOAXKABAgAsOd+st3nLP3w5qj3zB7DWB64BABgtCdX311987LtIbPHMJYAAQBghmvafe7Sdy/bPmr2GMYRIAAAzHKm+szqpcu2j589hjEECAAAs31q9XeXbY+ZPYSTJ0AAANgHz2gXIQ+cPYSTJUAAANgXn1O9eNl2n9lDODkCBACAfXF59bzq02YP4eQIEAAA9sl11Z9ftj1s9hBOhgABAGDfPKt6zuwRnAwBAgDAvjlTfdGy7UGzh3D8BAgAAPvoadVnzx7B8RMgAADsoyuq379sOzN7CMdLgAAAsK8+obp+9giOlwABAGBfPar6mNkjOF4CBACAfXVt9ezZIzheAgQAgH21qT5+9giOlwABAGCfeQbkwAgQAAD22QNmD+B4CRAAAPbZVbMHcLwECAAA+8zngBwYAQIAAAwjQAAAgGEECAAAMIwAAQAAhhEgAADAMAIEAAAYRoAAAADDCBAAAGAYAQIAAAwjQAAAgGEECAAAMIwAAQAAhhEgAADAMAIEAAAYRoAAAADDCBAAAGAYAQIAAAwjQAAAgGEECAAAMIwAAQAAhhEgAADAMAIEAAAYRoAAAADDCBAAAGAYAQIAAAwjQAAAgGEECAAAMIwAAQAAhhEgAADAMAIEAAAYRoAAAADDCBAAAGAYAQIAAAwjQAAAgGEECAAAMIwAAQAAhhEgAADAMAIEAAAYRoAAAADDCBAAAGAYAQIAAAwjQAAAgGEECAAAMIwAAQAAhhEgAADAMAIEAAAYRoAAAADDCBAAAGAYAQIAAAwjQAAAgGEECAAAMIwAAQAAhhEgAADAMAIEAAAYRoAAAADDCBAAAGAYAQIAAAwjQAAAgGEECAAAMIwAAQAAhhEgAADAMAIEAAAYRoAAAADDCBAAAGAYAQIAAAwjQAAAgGEECAAAMIwAAQAAhhEgAADAMAIEAAAYRoAAAADDCBAAAGAYAQIAAAwjQAAAgGEECAAAMIwAAQAAhhEgAADAMAIEAAAYRoAAAADDCBAAAGAYAQIAAAwjQAAAgGEECAAAMIwAAQAAhhEgAADAMAIEAAAYRoAAAADDCBAAAGAYAQIAAAwjQAAAgGEECAAAMIwAAQAAhhEgAADAMAIEAAAYRoAAAADDCBAAAGAYAQIAAAwjQAAAgGEunz0AAE6xd1S/Uf1m9VvVb1dvq26p7pg97oScqa6uHlA9pHp49cjqUdX9Zo8DTp4AAYBx7qheX726+qnqVdX/rH6num1z1J2zB460bLusurJ6YPXE6unVJ1SPqz6kXawAB0aAAMDJe0/109V3VP+x+j+bo26ZPWq2s8H1nrO/vWH5qn6493Z1dUP1jOrLqie0ixTgQGxmD+D4LdtuyU/WAPvgtuqHqpdVP97SWzYvnT1pHZZtm3a3aD2tuql6ZnXF7F1McevmqKtmj+D4CJADJEAApntvu9urXlb9681Rb509aM2WbddVz6m+vPrkvETntBEgB0aAHCABAjDVm6qXVn9/c9T/nT3mkCzbrq/+XPUnqwfN3sMwAuTA+A4CAByPpfq56kta+jrxcfw2R72h+pp2z4a8ZvYe4OIIEAC4dEv1r6rP685+dPPSg32F7nSbo25v6Qeq57b7dw6sjLdgAcCluaP6zurFZ79Dzwk7+yD/a5dtz6/eWv2xfFMVVsPBCgAX747qqPpq8THe5qhfq/5y9T3V7bP3ABdGgADAxVmqV1Rf63mPeTZHvbHdg+k/MHsLcGEECABcnH9X/aXNUW+ZPeS02xz1O9ULqlfO3gLcMwECAPfez1Yv2Bz1W7OHsLM56terF1b/e/YW4PwECADcO2+rvmlz1P+aPYS72hz1E9Xfrt4zewtwbgIEAO6d72jpH88ewTl9X/XPZ48Azk2AAMCFe111tHmpNy7tq81R76q+vvq12VuAuydAAODC3F79vc2RT+Dee5teW70kr+aFvSRAAODCvKb6wdkjuGebl3Rn9V3Vq2dvAT6YAAGAe3ZH9YrNUb85ewgXZnPU66sfmr0D+GACBADu2S9VL589gnvt+6rfmD0CuCsBAgD37FU5kV2jn6l+dPYI4K4ECACc37uqH9wcdefsIdw7m6PuqP5Du1vogD0hQADg/F5XvXL2CC7aT1dvnD0CeD8BAgDn9+qWfmf2CC7aL1X/efYI4P0ECACc389tXur2q7XaHHVL9ZOzdwDvJ0AA4Nxub/cddNbtF6v3zh4B7AgQADi3d+XtV4fgN9t9LYE9IEAA4NzeUb1l9ggu2Vuqd84eAewIEAA4tzdXb589gkv27gQI7A0BAgDn9ubqPbNHcMlubRchwB4QIABwbu9q9yA663ZHHkKHvSFAAODcbm/jFbwHYClfR9gXAgQAABhGgAAAAMMIEAAAYBgBAgAADCNAAACAYQQIAAAwjAABAACGESAAAMAwAgQAABhGgAAAAMMIEAAAYBgBAgAADCNAAACAYQQIAAAwjAABAACGESAAAMAwAgQAABhGgAAAAMMIEAAAYBgBAgAADCNAAACAYQQIAAAwjAABAACGESAAAMAwAgQAABhGgAAAAMMIEAAAYBgBAgAADCNAAACAYQQIAAAwjAABAACGESAAAMAwAgQAABhGgAAAAMMIEAAAYBgBAgAADCNAAACAYQQIAAAwjAABAACGESAAAMAwAgQAABhGgAAAAMMIEAAAYBgBAgAADCNAAACAYQQIAAAwjAABAACGESAAAMAwAgQAABhGgAAAAMMIEAAAYBgBAgAADCNAAODczlSb2SO4ZJuc88DecDACwLld1dKZ2SO4ZJeVryPsCwECAOf2oJaumj2CS3ZFdfXsEcCOAAGAc3t4m+4/ewSX7KrqmtkjgB0BAgDndm31wNkjuGTXVfebPQLYESAAcG7XVI+YPYJL9vAECOwNAQIA53Zl9eGzR3DJPrw8ywP7QoAAwPl9zOwBXLzlK7qsevzsHcD7CRAAOL+PW7YeRF+tO3t09czZM4D3EyAAcH43Vk+cPYKL9rjqhtkjgPcTIABwfg+pnjN7BBftU9s9ywPsCQECAPfs05ZtD549gntn2XZD9azZO4C7EiAAcM8+pnrG7BHca8/OA+iwdwQIANyz+1ZftWx7wOwhXJhl27XVc6vN7C3AXQkQALgwn1g9ffYILtizqyfPHgF8MAECABfmmnZXQR42ewjnt2y7vnpBu68ZsGcECABcuGdVf3T2CM5t2Xam+rLqSbO3AHdPgADAhbusesGy7amzh3BOT63+XHVm9hDg7gkQALh3bqi+dtn2oNlDuKtl26OrF1cPnb0FODcBAgD33h+oXrRsu+/sIewsN3e/6kXtvjbAHhMgAHDvXV79qermZdt9Zo857ZZt92nphdXzZm8B7pkAAYCLc1X116ovXW72WROzLNsur26qnl9iENZAgADAxbtf9bdaev5yU5fPHnPanL0F7i9Wf6vd1wJYAQECAJfmodVfbdOLlm33nz3mtFi2XVd9bfV15RPqYU0ECABcugdUX1P97WXbDbPHHLLlK2vZ9pjqW6q/1O5WOGBFBAgAHI8rqpurf7Vse/bZD8TjGC3bruiOnlP9QLsPhHTbG6yQAAGA47OpHl/9w+pblm2PWW6ePekwLNs+tvq26juqG8uD/7BWDt4DtGy7pbpy9g6AU26pXlO9vPr+ll67eWnL7FFrcvYNVzdWz63+SPXRszcxxa2bI7faHRIBcoAECMDe+aXqe6ofrf539fbN0exJ+2m5qU2bHlB9bPVZ1ZdUj8w5y2kmQA6Mg/kACRCAvbRUb69+uvq+6ierX2/prd3ZbZuXzZ436V/Ktto9P/PA6obqKdUXtruV7drZ+9gLAuTACJADJEAA9t6d1duq11e/Uv1q9ZvVG87+9o7qtjq4W7Y27X59urZ6ePWIdlc3PqxdfDzy7J/zjCq/mwA5MN4eAQDjXVZdd/a3j/1df/yO6t3t4uPODjNALmsXIVeXN4XBaSRAAGB/nCkfZggcNpc4AQCAYQQIAAAwjAABAACGESAAAMAwAgQAABhGgAAAAMMIEAAAYBgBAgAADCNAAACAYQQIAAAwjAABAACGESAAAMAwAgQAABhGgAAAAMMIEAAAYBgBAgAADCNAAACAYQQIAAAwjAABAACGESAAAMAwAgQAABhGgAAAAMMIEAAAYBgBAgAADCNAAACAYQQIAAAwjAABAACGESAAAMAwAgQAABhGgAAAAMMIEAAAYBgBAgAADCNAAACAYQQIAAAwjAABAACGESAAAMAwAgQAABhGgAAAAMMIEAAAYBgBAgAADCNAAACAYQQIAAAwjAABAACGESAAAMAwAgQAABhGgAAAAMMIEAAAYBgBAgAADCNAAACAYQQIAAAwjAABAACGESAAAMAwAgQAABhGgAAAAMMIEAAAYBgBAgAADCNAAACAYQQIAAAwjAABAACGESAAAMAwAgQAABhGgAAAAMMIEAAAYBgBAgAADCNAAACAYQQIAAAwjAABAACGESAAAMAwAgQAABhGgAAAAMMIEAAAYBgBAgAADCNAAACAYQQIAAAwjAABAACGESAAAMAwAgQAABhGgAAAAMMIEAAAYBgBAgAADCNAAACAYQQIAAAwjAABAACGESAAAMAwAgQAABhGgAAAAMMIEAAAYBgBAgAADCNAAACAYQQIAAAwjAABAACGESAAAMAwAgQAABhGgAAAAMMIEAAAYBgBAgAADCNAAACAYQTIYbpz9gAAgGPivObACJDDdNvsAQAAx8R5zYERIIfpnbMHAAAcE+c1B0aAHKY3zh4AAHBMnNccGAFymF43ewAAwDF57ewBHC8Bcph+pHr37BEAAJfo3e3OazggAuQw/UQuVwIA6/fGduc1HBABcpj+T/Xq2SMAAC7Rq6vfmD2C4yVADtDmqPdU/372DgCAS/Tvzp7XcEAEyOH6oTy0BQCs12vanc9wYATIgdoc9drqFbN3AABcpFdsjrzZ8xAJkMP2vdXPzx4BAHAvva7deQwHSIAcsM1Rr6m+sbp19hYAgAt0a/WNZ+/m4AAJkMP3L6ofnj0CAOAC/XD1/bNHcHI2swdw8pZtN1b/tPq42VsAAM7j56ovcPXjsLkCcgqcvRXr+dUvz94CAHAOv1I9X3wcPgFySmyOemX11dWbZm8BAPgAb6q++uz5CgdOgJwu31/dXF5pBwDsjddWN7fpX8wewhieATmFlm2fWP2D6inVmdl7AIBT6Y7qv1Z/dnPUf589hnEEyCm1bLu+elH1xdUDZ+8BAE6Vt1Yvr/7m5qg3zB7DWALkFFu2XVk9tfqz1WdUV87eBAActFurH62+uXrV5shnlZ1GAoSWbQ+onlk9t3pW9dDZmwCAg/Lm6sfafT7Zv90c9dbZg5hHgPA+y01d0aZPqH5f9YnVR7aLkfu1uzpyJv/NAAB3b2n3XMet1TvbvdnqF6r/Vv2H6qc2R902eyTzOZnkgyxfWD2gK6oHV9dXH1o99uyPr8nb0wCAu7qzelf1hnZvtfr1sz9+S7/TbZvvnT2PffL/ANN2pZ1zrcGCAAAAJXRFWHRkYXRlOmNyZWF0ZQAyMDE4LTAyLTI1VDA5OjUyOjM5KzAwOjAw8MsGSAAAACV0RVh0ZGF0ZTptb2RpZnkAMjAxOC0wMi0wNlQxMjozODo0NiswMDowMAW+524AAABNdEVYdHNvZnR3YXJlAEltYWdlTWFnaWNrIDYuOC45LTkgUTE2IHg4Nl82NCAyMDE3LTA3LTMxIGh0dHA6Ly93d3cuaW1hZ2VtYWdpY2sub3JnU2FVxgAAABh0RVh0VGh1bWI6OkRvY3VtZW50OjpQYWdlcwAxp/+7LwAAABl0RVh0VGh1bWI6OkltYWdlOjpIZWlnaHQAMjU0MKJv1icAAAAYdEVYdFRodW1iOjpJbWFnZTo6V2lkdGgAMjQwMNKIpQ0AAAAZdEVYdFRodW1iOjpNaW1ldHlwZQBpbWFnZS9wbmc/slZOAAAAF3RFWHRUaHVtYjo6TVRpbWUAMTUxNzkyMDcyNrFariwAAAATdEVYdFRodW1iOjpTaXplADQ3LjFLQkJl7LLDAAAARHRFWHRUaHVtYjo6VVJJAGZpbGU6Ly8vb3B0L3BuZ19iYXRjaF8yL3JhYmJpdG1xLWxvZ28tcG5nLXRyYW5zcGFyZW50LnBuZ5PDf6MAAAAASUVORK5CYII=;rotation=0;" parent="1" vertex="1">
          <mxGeometry x="-832" y="300" width="66.67" height="50" as="geometry" />
        </mxCell>
        <mxCell id="QuYCjtv5ThX6Y8jcbmzW-27" value="Rabbit MQ" style="text;html=1;strokeColor=none;fillColor=none;align=center;verticalAlign=middle;whiteSpace=wrap;rounded=0;fontSize=14;rotation=0;fontStyle=1" parent="1" vertex="1">
          <mxGeometry x="-838" y="271" width="90" height="20" as="geometry" />
        </mxCell>
        <mxCell id="QuYCjtv5ThX6Y8jcbmzW-28" value="Azure service Bus" style="text;html=1;strokeColor=none;fillColor=none;align=center;verticalAlign=middle;whiteSpace=wrap;rounded=0;fontSize=14;rotation=0;fontStyle=1" parent="1" vertex="1">
          <mxGeometry x="-829.33" y="416" width="81.33" height="20" as="geometry" />
        </mxCell>
        <mxCell id="QuYCjtv5ThX6Y8jcbmzW-30" value="Or" style="text;html=1;strokeColor=none;fillColor=none;align=center;verticalAlign=middle;whiteSpace=wrap;rounded=0;rotation=0;fontSize=14;fontStyle=1" parent="1" vertex="1">
          <mxGeometry x="-817.8299999999999" y="368.25" width="40" height="20" as="geometry" />
        </mxCell>
        <mxCell id="QuYCjtv5ThX6Y8jcbmzW-31" value="" style="group;rotation=0;" parent="1" vertex="1" connectable="0">
          <mxGeometry x="-1640" y="470" width="140" height="276" as="geometry" />
        </mxCell>
        <mxCell id="QuYCjtv5ThX6Y8jcbmzW-24" value="" style="shape=cylinder3;whiteSpace=wrap;html=1;boundedLbl=1;backgroundOutline=1;size=9.768159004215931;dashed=1;fillColor=#f5f5f5;dashPattern=1 1;strokeColor=#666666;fontColor=#333333;rotation=0;" parent="QuYCjtv5ThX6Y8jcbmzW-31" vertex="1">
          <mxGeometry x="64" y="12" width="47.29" height="197.75" as="geometry" />
        </mxCell>
        <mxCell id="QuYCjtv5ThX6Y8jcbmzW-25" value="&lt;font style=&quot;font-size: 12px;&quot;&gt;Event Bus&lt;/font&gt;" style="text;html=1;strokeColor=none;fillColor=none;align=center;verticalAlign=middle;whiteSpace=wrap;rounded=0;dashed=1;dashPattern=1 1;direction=west;rotation=-89;fontStyle=1;fontSize=12;" parent="QuYCjtv5ThX6Y8jcbmzW-31" vertex="1">
          <mxGeometry x="48" y="89" width="63.05882352941176" height="18.839590443686006" as="geometry" />
        </mxCell>
        <mxCell id="QuYCjtv5ThX6Y8jcbmzW-29" value="(Publish / Subscribe channel)" style="text;html=1;strokeColor=none;fillColor=none;align=center;verticalAlign=middle;whiteSpace=wrap;rounded=0;dashed=1;dashPattern=1 4;labelBackgroundColor=none;fontSize=12;fontColor=#000000;rotation=-90;" parent="QuYCjtv5ThX6Y8jcbmzW-31" vertex="1">
          <mxGeometry x="4" y="107" width="182.56" height="18.84" as="geometry" />
        </mxCell>
        <mxCell id="QuYCjtv5ThX6Y8jcbmzW-49" value="" style="group" parent="1" vertex="1" connectable="0">
          <mxGeometry x="-1837" y="620" width="220" height="126" as="geometry" />
        </mxCell>
        <mxCell id="QuYCjtv5ThX6Y8jcbmzW-42" value="" style="rounded=1;whiteSpace=wrap;html=1;dashed=1;fontColor=none;strokeColor=#232F3E;strokeWidth=1;fillColor=none;" parent="QuYCjtv5ThX6Y8jcbmzW-49" vertex="1">
          <mxGeometry width="220" height="115" as="geometry" />
        </mxCell>
        <mxCell id="QuYCjtv5ThX6Y8jcbmzW-43" value="Scalable Pod" style="text;html=1;strokeColor=none;fillColor=none;align=center;verticalAlign=middle;whiteSpace=wrap;rounded=0;dashed=1;fontColor=none;" parent="QuYCjtv5ThX6Y8jcbmzW-49" vertex="1">
          <mxGeometry x="60" y="5" width="110" height="20" as="geometry" />
        </mxCell>
        <mxCell id="QuYCjtv5ThX6Y8jcbmzW-44" value="" style="group" parent="QuYCjtv5ThX6Y8jcbmzW-49" vertex="1" connectable="0">
          <mxGeometry x="25" y="26" width="190" height="100" as="geometry" />
        </mxCell>
        <mxCell id="QuYCjtv5ThX6Y8jcbmzW-45" value="" style="rounded=1;whiteSpace=wrap;html=1;gradientColor=#b3b3b3;fillColor=#f5f5f5;strokeColor=#666666;" parent="QuYCjtv5ThX6Y8jcbmzW-44" vertex="1">
          <mxGeometry x="10" y="20" width="160" height="60" as="geometry" />
        </mxCell>
        <mxCell id="QuYCjtv5ThX6Y8jcbmzW-47" value="&lt;b&gt;&lt;font face=&quot;Verdana&quot;&gt;Worker&lt;/font&gt;&lt;/b&gt;" style="text;html=1;align=center;verticalAlign=middle;resizable=0;points=[];autosize=1;fontSize=11;" parent="QuYCjtv5ThX6Y8jcbmzW-44" vertex="1">
          <mxGeometry x="60" width="60" height="20" as="geometry" />
        </mxCell>
        <mxCell id="QuYCjtv5ThX6Y8jcbmzW-48" value="Identity Service" style="text;html=1;strokeColor=none;fillColor=none;align=center;verticalAlign=middle;whiteSpace=wrap;rounded=0;dashed=1;fontStyle=1" parent="QuYCjtv5ThX6Y8jcbmzW-44" vertex="1">
          <mxGeometry x="64" y="40" width="106" height="20" as="geometry" />
        </mxCell>
        <mxCell id="QuYCjtv5ThX6Y8jcbmzW-59" value="" style="outlineConnect=0;dashed=0;verticalLabelPosition=bottom;verticalAlign=top;align=center;html=1;shape=mxgraph.aws3.worker;fillColor=#D9A741;gradientColor=none;fontSize=12;" parent="QuYCjtv5ThX6Y8jcbmzW-44" vertex="1">
          <mxGeometry x="22" y="33.5" width="30" height="33" as="geometry" />
        </mxCell>
        <mxCell id="QuYCjtv5ThX6Y8jcbmzW-11" value="" style="group" parent="1" vertex="1" connectable="0">
          <mxGeometry x="-1837" y="450.75" width="220" height="115" as="geometry" />
        </mxCell>
        <mxCell id="QuYCjtv5ThX6Y8jcbmzW-12" value="" style="rounded=1;whiteSpace=wrap;html=1;dashed=1;fontColor=none;strokeColor=#232F3E;strokeWidth=1;fillColor=none;" parent="QuYCjtv5ThX6Y8jcbmzW-11" vertex="1">
          <mxGeometry width="220" height="115" as="geometry" />
        </mxCell>
        <mxCell id="QuYCjtv5ThX6Y8jcbmzW-13" value="" style="group" parent="QuYCjtv5ThX6Y8jcbmzW-11" vertex="1" connectable="0">
          <mxGeometry x="30" y="45" width="179" height="60" as="geometry" />
        </mxCell>
        <mxCell id="QuYCjtv5ThX6Y8jcbmzW-14" value="" style="rounded=1;whiteSpace=wrap;html=1;gradientColor=#b3b3b3;fillColor=#f5f5f5;strokeColor=#666666;" parent="QuYCjtv5ThX6Y8jcbmzW-13" vertex="1">
          <mxGeometry width="160" height="60" as="geometry" />
        </mxCell>
        <mxCell id="QuYCjtv5ThX6Y8jcbmzW-15" value="" style="shape=image;verticalLabelPosition=bottom;verticalAlign=top;imageAspect=0;aspect=fixed;image=data:image/svg+xml,PHN2ZyB4bWxucz0iaHR0cDovL3d3dy53My5vcmcvMjAwMC9zdmciIGlkPSJMYXllcl8xIiBkYXRhLW5hbWU9IkxheWVyIDEiIHZpZXdCb3g9IjAgMCA2NCA2NCI+PGRlZnM+PHN0eWxlPi5jbHMtMXtmaWxsOiM1YzJkOTE7fS5jbHMtMiwuY2xzLTN7ZmlsbDojZmZmO30uY2xzLTJ7b3BhY2l0eTowLjE7fS5jbHMtNHtmaWxsOiNmMmYyZjI7fTwvc3R5bGU+PC9kZWZzPjx0aXRsZT5sb2dvX05FVGNvcmU8L3RpdGxlPjxjaXJjbGUgY2xhc3M9ImNscy0xIiBjeD0iMzIiIGN5PSIzMiIgcj0iMzIiLz48cGF0aCBjbGFzcz0iY2xzLTIiIGQ9Ik05LjgyLDlBMzIsMzIsMCwxLDAsNTUsNTQuMThaIi8+PHBhdGggY2xhc3M9ImNscy0zIiBkPSJNNy40LDM3LjI1YTEuMzUsMS4zNSwwLDAsMS0xLS40MiwxLjM4LDEuMzgsMCwwLDEtLjQxLTEsMS40LDEuNCwwLDAsMSwuNDEtMSwxLjM0LDEuMzQsMCwwLDEsMS0uNDMsMS4zNywxLjM3LDAsMCwxLDEsLjQzLDEuMzksMS4zOSwwLDAsMSwuNDIsMSwxLjM3LDEuMzcsMCwwLDEtLjQyLDFBMS4zOCwxLjM4LDAsMCwxLDcuNCwzNy4yNVoiLz48cGF0aCBjbGFzcz0iY2xzLTMiIGQ9Ik0yNy4yNywzN0gyNC42NUwxNS4yOCwyMi40NmE2LDYsMCwwLDEtLjU4LTEuMTRoLS4wOGExOC43MiwxOC43MiwwLDAsMSwuMSwyLjVWMzdIMTIuNTlWMTguNzdoMi43N2w5LjEyLDE0LjI4cS41Ny44OS43NCwxLjIyaC4wNWExOS4yOCwxOS4yOCwwLDAsMS0uMTMtMi42OFYxOC43N2gyLjEzWiIvPjxwYXRoIGNsYXNzPSJjbHMtMyIgZD0iTTQxLjY5LDM3SDMyVjE4Ljc3aDkuMjRWMjAuN0gzNC4xOHY2LjA2aDYuNTh2MS45MkgzNC4xOFYzNWg3LjUyWiIvPjxwYXRoIGNsYXNzPSJjbHMtMyIgZD0iTTU2LDIwLjdINTAuN1YzN0g0OC41N1YyMC43SDQzLjMzVjE4Ljc3SDU2WiIvPjxwYXRoIGNsYXNzPSJjbHMtNCIgZD0iTTI2LjEyLDQ5LjRhNC45Myw0LjkzLDAsMCwxLTIuMzIuNDksMy43NCwzLjc0LDAsMCwxLTIuODctMS4xNSw0LjI2LDQuMjYsMCwwLDEtMS4wOC0zLDQuNDYsNC40NiwwLDAsMSwxLjIxLTMuMjYsNC4xMiw0LjEyLDAsMCwxLDMuMDgtMS4yNCw0LjkzLDQuOTMsMCwwLDEsMiwuMzV2MWE0LDQsMCwwLDAtMi0uNSwzLjA2LDMuMDYsMCwwLDAtMi4zNSwxLDMuNjQsMy42NCwwLDAsMC0uOSwyLjU4LDMuNDcsMy40NywwLDAsMCwuODQsMi40NSwyLjg2LDIuODYsMCwwLDAsMi4yMS45MSw0LjE0LDQuMTQsMCwwLDAsMi4xOS0uNTZaIi8+PHBhdGggY2xhc3M9ImNscy00IiBkPSJNMzAuMjEsNDkuODlBMi43OCwyLjc4LDAsMCwxLDI4LjA4LDQ5YTMuMTEsMy4xMSwwLDAsMS0uNzktMi4yMywzLjI0LDMuMjQsMCwwLDEsLjgzLTIuMzYsMywzLDAsMCwxLDIuMjMtLjg1LDIuNjksMi42OSwwLDAsMSwyLjA5LjgzLDMuMjgsMy4yOCwwLDAsMSwuNzUsMi4yOSwzLjIyLDMuMjIsMCwwLDEtLjgxLDIuM0EyLjg0LDIuODQsMCwwLDEsMzAuMjEsNDkuODlabS4wNy01LjQ3YTEuODMsMS44MywwLDAsMC0xLjQ2LjYzLDIuNTksMi41OSwwLDAsMC0uNTQsMS43NCwyLjQ1LDIuNDUsMCwwLDAsLjU0LDEuNjgsMS44NSwxLjg1LDAsMCwwLDEuNDYuNjIsMS43NiwxLjc2LDAsMCwwLDEuNDMtLjYsMi42MiwyLjYyLDAsMCwwLC41LTEuNzIsMi42NiwyLjY2LDAsMCwwLS41LTEuNzNBMS43NSwxLjc1LDAsMCwwLDMwLjI4LDQ0LjQyWiIvPjxwYXRoIGNsYXNzPSJjbHMtNCIgZD0iTTM3Ljg2LDQ0LjcyYTEuMTgsMS4xOCwwLDAsMC0uNzMtLjE5LDEuMjMsMS4yMywwLDAsMC0xLC41OCwyLjY4LDIuNjgsMCwwLDAtLjQxLDEuNTh2My4wNmgtMXYtNmgxVjQ1aDBhMi4xLDIuMSwwLDAsMSwuNjMtMSwxLjQzLDEuNDMsMCwwLDEsLjk0LS4zNSwxLjU3LDEuNTcsMCwwLDEsLjU3LjA4WiIvPjxwYXRoIGNsYXNzPSJjbHMtNCIgZD0iTTQzLjcyLDQ3SDM5LjQ5QTIuMjQsMi4yNCwwLDAsMCw0MCw0OC41NGExLjg2LDEuODYsMCwwLDAsMS40Mi41NCwzLDMsMCwwLDAsMS44Ni0uNjd2LjlhMy40OCwzLjQ4LDAsMCwxLTIuMDkuNTcsMi41NCwyLjU0LDAsMCwxLTItLjgyLDMuMzUsMy4zNSwwLDAsMS0uNzMtMi4zLDMuMjgsMy4yOCwwLDAsMSwuNzktMi4yOCwyLjU1LDIuNTUsMCwwLDEsMi0uODgsMi4yNiwyLjI2LDAsMCwxLDEuODIuNzYsMy4xOCwzLjE4LDAsMCwxLC42NCwyLjEyWm0tMS0uODFhMiwyLDAsMCwwLS40LTEuMjksMS4zNywxLjM3LDAsMCwwLTEuMS0uNDYsMS41NSwxLjU1LDAsMCwwLTEuMTUuNDksMi4yMSwyLjIxLDAsMCwwLS41OSwxLjI3WiIvPjwvc3ZnPg==" parent="QuYCjtv5ThX6Y8jcbmzW-13" vertex="1">
          <mxGeometry x="10" y="8" width="30" height="30" as="geometry" />
        </mxCell>
        <mxCell id="QuYCjtv5ThX6Y8jcbmzW-16" value="Suitability Service" style="text;html=1;strokeColor=none;fillColor=none;align=center;verticalAlign=middle;whiteSpace=wrap;rounded=0;dashed=1;fontStyle=1" parent="QuYCjtv5ThX6Y8jcbmzW-13" vertex="1">
          <mxGeometry x="50" y="20" width="110" height="20" as="geometry" />
        </mxCell>
        <mxCell id="QuYCjtv5ThX6Y8jcbmzW-17" value="Scalable Pod" style="text;html=1;strokeColor=none;fillColor=none;align=center;verticalAlign=middle;whiteSpace=wrap;rounded=0;dashed=1;fontColor=none;" parent="QuYCjtv5ThX6Y8jcbmzW-11" vertex="1">
          <mxGeometry x="60" y="6" width="110" height="20" as="geometry" />
        </mxCell>
        <mxCell id="QuYCjtv5ThX6Y8jcbmzW-18" value="&lt;b&gt;&lt;font face=&quot;Verdana&quot;&gt;Api&lt;/font&gt;&lt;/b&gt;" style="text;html=1;align=center;verticalAlign=middle;resizable=0;points=[];autosize=1;fontSize=11;" parent="QuYCjtv5ThX6Y8jcbmzW-11" vertex="1">
          <mxGeometry x="91" y="24" width="40" height="20" as="geometry" />
        </mxCell>
        <mxCell id="QuYCjtv5ThX6Y8jcbmzW-54" style="edgeStyle=orthogonalEdgeStyle;rounded=0;orthogonalLoop=1;jettySize=auto;html=1;exitX=1;exitY=0.75;exitDx=0;exitDy=0;entryX=0.5;entryY=1;entryDx=0;entryDy=0;fontSize=12;startArrow=none;startFill=0;endArrow=classic;endFill=1;" parent="1" source="QuYCjtv5ThX6Y8jcbmzW-42" target="EWTi3nRZQ3Ram_rcYh2X-12" edge="1">
          <mxGeometry relative="1" as="geometry" />
        </mxCell>
        <mxCell id="QuYCjtv5ThX6Y8jcbmzW-57" style="edgeStyle=orthogonalEdgeStyle;rounded=0;orthogonalLoop=1;jettySize=auto;html=1;exitX=0;exitY=0.5;exitDx=0;exitDy=0;exitPerimeter=0;entryX=0.5;entryY=0;entryDx=0;entryDy=0;fontSize=12;startArrow=none;startFill=0;endArrow=classic;endFill=1;" parent="1" source="QuYCjtv5ThX6Y8jcbmzW-24" target="QuYCjtv5ThX6Y8jcbmzW-42" edge="1">
          <mxGeometry relative="1" as="geometry" />
        </mxCell>
        <mxCell id="QuYCjtv5ThX6Y8jcbmzW-58" style="edgeStyle=orthogonalEdgeStyle;rounded=0;orthogonalLoop=1;jettySize=auto;html=1;exitX=1;exitY=0.5;exitDx=0;exitDy=0;entryX=0;entryY=0;entryDx=0;entryDy=54.321579502107966;fontSize=12;startArrow=none;startFill=0;endArrow=classic;endFill=1;entryPerimeter=0;" parent="1" source="QuYCjtv5ThX6Y8jcbmzW-12" target="QuYCjtv5ThX6Y8jcbmzW-24" edge="1">
          <mxGeometry relative="1" as="geometry">
            <Array as="points">
              <mxPoint x="-1590" y="508" />
              <mxPoint x="-1590" y="536" />
            </Array>
          </mxGeometry>
        </mxCell>
      </root>
    </mxGraphModel>
  </diagram>
</mxfile>
